%TF.GenerationSoftware,KiCad,Pcbnew,9.0.4*%
%TF.CreationDate,2026-01-26T22:01:19-06:00*%
%TF.ProjectId,BatteryBoard,42617474-6572-4794-926f-6172642e6b69,rev?*%
%TF.SameCoordinates,Original*%
%TF.FileFunction,Legend,Top*%
%TF.FilePolarity,Positive*%
%FSLAX46Y46*%
G04 Gerber Fmt 4.6, Leading zero omitted, Abs format (unit mm)*
G04 Created by KiCad (PCBNEW 9.0.4) date 2026-01-26 22:01:19*
%MOMM*%
%LPD*%
G01*
G04 APERTURE LIST*
%ADD10C,0.075000*%
%ADD11C,0.120000*%
G04 APERTURE END LIST*
D10*
X77516666Y-44577409D02*
X77278571Y-44577409D01*
X77278571Y-44577409D02*
X77278571Y-44077409D01*
X77945238Y-44577409D02*
X77659524Y-44577409D01*
X77802381Y-44577409D02*
X77802381Y-44077409D01*
X77802381Y-44077409D02*
X77754762Y-44148838D01*
X77754762Y-44148838D02*
X77707143Y-44196457D01*
X77707143Y-44196457D02*
X77659524Y-44220266D01*
X77016666Y-50577409D02*
X76850000Y-50339314D01*
X76730952Y-50577409D02*
X76730952Y-50077409D01*
X76730952Y-50077409D02*
X76921428Y-50077409D01*
X76921428Y-50077409D02*
X76969047Y-50101219D01*
X76969047Y-50101219D02*
X76992857Y-50125028D01*
X76992857Y-50125028D02*
X77016666Y-50172647D01*
X77016666Y-50172647D02*
X77016666Y-50244076D01*
X77016666Y-50244076D02*
X76992857Y-50291695D01*
X76992857Y-50291695D02*
X76969047Y-50315504D01*
X76969047Y-50315504D02*
X76921428Y-50339314D01*
X76921428Y-50339314D02*
X76730952Y-50339314D01*
X77183333Y-50077409D02*
X77492857Y-50077409D01*
X77492857Y-50077409D02*
X77326190Y-50267885D01*
X77326190Y-50267885D02*
X77397619Y-50267885D01*
X77397619Y-50267885D02*
X77445238Y-50291695D01*
X77445238Y-50291695D02*
X77469047Y-50315504D01*
X77469047Y-50315504D02*
X77492857Y-50363123D01*
X77492857Y-50363123D02*
X77492857Y-50482171D01*
X77492857Y-50482171D02*
X77469047Y-50529790D01*
X77469047Y-50529790D02*
X77445238Y-50553600D01*
X77445238Y-50553600D02*
X77397619Y-50577409D01*
X77397619Y-50577409D02*
X77254762Y-50577409D01*
X77254762Y-50577409D02*
X77207143Y-50553600D01*
X77207143Y-50553600D02*
X77183333Y-50529790D01*
X69386666Y-42454790D02*
X69362857Y-42478600D01*
X69362857Y-42478600D02*
X69291428Y-42502409D01*
X69291428Y-42502409D02*
X69243809Y-42502409D01*
X69243809Y-42502409D02*
X69172381Y-42478600D01*
X69172381Y-42478600D02*
X69124762Y-42430980D01*
X69124762Y-42430980D02*
X69100952Y-42383361D01*
X69100952Y-42383361D02*
X69077143Y-42288123D01*
X69077143Y-42288123D02*
X69077143Y-42216695D01*
X69077143Y-42216695D02*
X69100952Y-42121457D01*
X69100952Y-42121457D02*
X69124762Y-42073838D01*
X69124762Y-42073838D02*
X69172381Y-42026219D01*
X69172381Y-42026219D02*
X69243809Y-42002409D01*
X69243809Y-42002409D02*
X69291428Y-42002409D01*
X69291428Y-42002409D02*
X69362857Y-42026219D01*
X69362857Y-42026219D02*
X69386666Y-42050028D01*
X69577143Y-42050028D02*
X69600952Y-42026219D01*
X69600952Y-42026219D02*
X69648571Y-42002409D01*
X69648571Y-42002409D02*
X69767619Y-42002409D01*
X69767619Y-42002409D02*
X69815238Y-42026219D01*
X69815238Y-42026219D02*
X69839047Y-42050028D01*
X69839047Y-42050028D02*
X69862857Y-42097647D01*
X69862857Y-42097647D02*
X69862857Y-42145266D01*
X69862857Y-42145266D02*
X69839047Y-42216695D01*
X69839047Y-42216695D02*
X69553333Y-42502409D01*
X69553333Y-42502409D02*
X69862857Y-42502409D01*
X70016666Y-50627409D02*
X69850000Y-50389314D01*
X69730952Y-50627409D02*
X69730952Y-50127409D01*
X69730952Y-50127409D02*
X69921428Y-50127409D01*
X69921428Y-50127409D02*
X69969047Y-50151219D01*
X69969047Y-50151219D02*
X69992857Y-50175028D01*
X69992857Y-50175028D02*
X70016666Y-50222647D01*
X70016666Y-50222647D02*
X70016666Y-50294076D01*
X70016666Y-50294076D02*
X69992857Y-50341695D01*
X69992857Y-50341695D02*
X69969047Y-50365504D01*
X69969047Y-50365504D02*
X69921428Y-50389314D01*
X69921428Y-50389314D02*
X69730952Y-50389314D01*
X70445238Y-50294076D02*
X70445238Y-50627409D01*
X70326190Y-50103600D02*
X70207143Y-50460742D01*
X70207143Y-50460742D02*
X70516666Y-50460742D01*
X73019044Y-45852409D02*
X73019044Y-46257171D01*
X73019044Y-46257171D02*
X73042854Y-46304790D01*
X73042854Y-46304790D02*
X73066663Y-46328600D01*
X73066663Y-46328600D02*
X73114282Y-46352409D01*
X73114282Y-46352409D02*
X73209520Y-46352409D01*
X73209520Y-46352409D02*
X73257139Y-46328600D01*
X73257139Y-46328600D02*
X73280949Y-46304790D01*
X73280949Y-46304790D02*
X73304758Y-46257171D01*
X73304758Y-46257171D02*
X73304758Y-45852409D01*
X73804759Y-46352409D02*
X73519045Y-46352409D01*
X73661902Y-46352409D02*
X73661902Y-45852409D01*
X73661902Y-45852409D02*
X73614283Y-45923838D01*
X73614283Y-45923838D02*
X73566664Y-45971457D01*
X73566664Y-45971457D02*
X73519045Y-45995266D01*
X79329790Y-45633333D02*
X79353600Y-45657142D01*
X79353600Y-45657142D02*
X79377409Y-45728571D01*
X79377409Y-45728571D02*
X79377409Y-45776190D01*
X79377409Y-45776190D02*
X79353600Y-45847618D01*
X79353600Y-45847618D02*
X79305980Y-45895237D01*
X79305980Y-45895237D02*
X79258361Y-45919047D01*
X79258361Y-45919047D02*
X79163123Y-45942856D01*
X79163123Y-45942856D02*
X79091695Y-45942856D01*
X79091695Y-45942856D02*
X78996457Y-45919047D01*
X78996457Y-45919047D02*
X78948838Y-45895237D01*
X78948838Y-45895237D02*
X78901219Y-45847618D01*
X78901219Y-45847618D02*
X78877409Y-45776190D01*
X78877409Y-45776190D02*
X78877409Y-45728571D01*
X78877409Y-45728571D02*
X78901219Y-45657142D01*
X78901219Y-45657142D02*
X78925028Y-45633333D01*
X78877409Y-45180952D02*
X78877409Y-45419047D01*
X78877409Y-45419047D02*
X79115504Y-45442856D01*
X79115504Y-45442856D02*
X79091695Y-45419047D01*
X79091695Y-45419047D02*
X79067885Y-45371428D01*
X79067885Y-45371428D02*
X79067885Y-45252380D01*
X79067885Y-45252380D02*
X79091695Y-45204761D01*
X79091695Y-45204761D02*
X79115504Y-45180952D01*
X79115504Y-45180952D02*
X79163123Y-45157142D01*
X79163123Y-45157142D02*
X79282171Y-45157142D01*
X79282171Y-45157142D02*
X79329790Y-45180952D01*
X79329790Y-45180952D02*
X79353600Y-45204761D01*
X79353600Y-45204761D02*
X79377409Y-45252380D01*
X79377409Y-45252380D02*
X79377409Y-45371428D01*
X79377409Y-45371428D02*
X79353600Y-45419047D01*
X79353600Y-45419047D02*
X79329790Y-45442856D01*
X74491666Y-41404790D02*
X74467857Y-41428600D01*
X74467857Y-41428600D02*
X74396428Y-41452409D01*
X74396428Y-41452409D02*
X74348809Y-41452409D01*
X74348809Y-41452409D02*
X74277381Y-41428600D01*
X74277381Y-41428600D02*
X74229762Y-41380980D01*
X74229762Y-41380980D02*
X74205952Y-41333361D01*
X74205952Y-41333361D02*
X74182143Y-41238123D01*
X74182143Y-41238123D02*
X74182143Y-41166695D01*
X74182143Y-41166695D02*
X74205952Y-41071457D01*
X74205952Y-41071457D02*
X74229762Y-41023838D01*
X74229762Y-41023838D02*
X74277381Y-40976219D01*
X74277381Y-40976219D02*
X74348809Y-40952409D01*
X74348809Y-40952409D02*
X74396428Y-40952409D01*
X74396428Y-40952409D02*
X74467857Y-40976219D01*
X74467857Y-40976219D02*
X74491666Y-41000028D01*
X74658333Y-40952409D02*
X74991666Y-40952409D01*
X74991666Y-40952409D02*
X74777381Y-41452409D01*
X78516666Y-47779790D02*
X78492857Y-47803600D01*
X78492857Y-47803600D02*
X78421428Y-47827409D01*
X78421428Y-47827409D02*
X78373809Y-47827409D01*
X78373809Y-47827409D02*
X78302381Y-47803600D01*
X78302381Y-47803600D02*
X78254762Y-47755980D01*
X78254762Y-47755980D02*
X78230952Y-47708361D01*
X78230952Y-47708361D02*
X78207143Y-47613123D01*
X78207143Y-47613123D02*
X78207143Y-47541695D01*
X78207143Y-47541695D02*
X78230952Y-47446457D01*
X78230952Y-47446457D02*
X78254762Y-47398838D01*
X78254762Y-47398838D02*
X78302381Y-47351219D01*
X78302381Y-47351219D02*
X78373809Y-47327409D01*
X78373809Y-47327409D02*
X78421428Y-47327409D01*
X78421428Y-47327409D02*
X78492857Y-47351219D01*
X78492857Y-47351219D02*
X78516666Y-47375028D01*
X78754762Y-47827409D02*
X78850000Y-47827409D01*
X78850000Y-47827409D02*
X78897619Y-47803600D01*
X78897619Y-47803600D02*
X78921428Y-47779790D01*
X78921428Y-47779790D02*
X78969047Y-47708361D01*
X78969047Y-47708361D02*
X78992857Y-47613123D01*
X78992857Y-47613123D02*
X78992857Y-47422647D01*
X78992857Y-47422647D02*
X78969047Y-47375028D01*
X78969047Y-47375028D02*
X78945238Y-47351219D01*
X78945238Y-47351219D02*
X78897619Y-47327409D01*
X78897619Y-47327409D02*
X78802381Y-47327409D01*
X78802381Y-47327409D02*
X78754762Y-47351219D01*
X78754762Y-47351219D02*
X78730952Y-47375028D01*
X78730952Y-47375028D02*
X78707143Y-47422647D01*
X78707143Y-47422647D02*
X78707143Y-47541695D01*
X78707143Y-47541695D02*
X78730952Y-47589314D01*
X78730952Y-47589314D02*
X78754762Y-47613123D01*
X78754762Y-47613123D02*
X78802381Y-47636933D01*
X78802381Y-47636933D02*
X78897619Y-47636933D01*
X78897619Y-47636933D02*
X78945238Y-47613123D01*
X78945238Y-47613123D02*
X78969047Y-47589314D01*
X78969047Y-47589314D02*
X78992857Y-47541695D01*
X70587409Y-45393333D02*
X70349314Y-45559999D01*
X70587409Y-45679047D02*
X70087409Y-45679047D01*
X70087409Y-45679047D02*
X70087409Y-45488571D01*
X70087409Y-45488571D02*
X70111219Y-45440952D01*
X70111219Y-45440952D02*
X70135028Y-45417142D01*
X70135028Y-45417142D02*
X70182647Y-45393333D01*
X70182647Y-45393333D02*
X70254076Y-45393333D01*
X70254076Y-45393333D02*
X70301695Y-45417142D01*
X70301695Y-45417142D02*
X70325504Y-45440952D01*
X70325504Y-45440952D02*
X70349314Y-45488571D01*
X70349314Y-45488571D02*
X70349314Y-45679047D01*
X70587409Y-44917142D02*
X70587409Y-45202856D01*
X70587409Y-45059999D02*
X70087409Y-45059999D01*
X70087409Y-45059999D02*
X70158838Y-45107618D01*
X70158838Y-45107618D02*
X70206457Y-45155237D01*
X70206457Y-45155237D02*
X70230266Y-45202856D01*
X73016666Y-41379790D02*
X72992857Y-41403600D01*
X72992857Y-41403600D02*
X72921428Y-41427409D01*
X72921428Y-41427409D02*
X72873809Y-41427409D01*
X72873809Y-41427409D02*
X72802381Y-41403600D01*
X72802381Y-41403600D02*
X72754762Y-41355980D01*
X72754762Y-41355980D02*
X72730952Y-41308361D01*
X72730952Y-41308361D02*
X72707143Y-41213123D01*
X72707143Y-41213123D02*
X72707143Y-41141695D01*
X72707143Y-41141695D02*
X72730952Y-41046457D01*
X72730952Y-41046457D02*
X72754762Y-40998838D01*
X72754762Y-40998838D02*
X72802381Y-40951219D01*
X72802381Y-40951219D02*
X72873809Y-40927409D01*
X72873809Y-40927409D02*
X72921428Y-40927409D01*
X72921428Y-40927409D02*
X72992857Y-40951219D01*
X72992857Y-40951219D02*
X73016666Y-40975028D01*
X73445238Y-40927409D02*
X73350000Y-40927409D01*
X73350000Y-40927409D02*
X73302381Y-40951219D01*
X73302381Y-40951219D02*
X73278571Y-40975028D01*
X73278571Y-40975028D02*
X73230952Y-41046457D01*
X73230952Y-41046457D02*
X73207143Y-41141695D01*
X73207143Y-41141695D02*
X73207143Y-41332171D01*
X73207143Y-41332171D02*
X73230952Y-41379790D01*
X73230952Y-41379790D02*
X73254762Y-41403600D01*
X73254762Y-41403600D02*
X73302381Y-41427409D01*
X73302381Y-41427409D02*
X73397619Y-41427409D01*
X73397619Y-41427409D02*
X73445238Y-41403600D01*
X73445238Y-41403600D02*
X73469047Y-41379790D01*
X73469047Y-41379790D02*
X73492857Y-41332171D01*
X73492857Y-41332171D02*
X73492857Y-41213123D01*
X73492857Y-41213123D02*
X73469047Y-41165504D01*
X73469047Y-41165504D02*
X73445238Y-41141695D01*
X73445238Y-41141695D02*
X73397619Y-41117885D01*
X73397619Y-41117885D02*
X73302381Y-41117885D01*
X73302381Y-41117885D02*
X73254762Y-41141695D01*
X73254762Y-41141695D02*
X73230952Y-41165504D01*
X73230952Y-41165504D02*
X73207143Y-41213123D01*
X70916666Y-50627409D02*
X70750000Y-50389314D01*
X70630952Y-50627409D02*
X70630952Y-50127409D01*
X70630952Y-50127409D02*
X70821428Y-50127409D01*
X70821428Y-50127409D02*
X70869047Y-50151219D01*
X70869047Y-50151219D02*
X70892857Y-50175028D01*
X70892857Y-50175028D02*
X70916666Y-50222647D01*
X70916666Y-50222647D02*
X70916666Y-50294076D01*
X70916666Y-50294076D02*
X70892857Y-50341695D01*
X70892857Y-50341695D02*
X70869047Y-50365504D01*
X70869047Y-50365504D02*
X70821428Y-50389314D01*
X70821428Y-50389314D02*
X70630952Y-50389314D01*
X71369047Y-50127409D02*
X71130952Y-50127409D01*
X71130952Y-50127409D02*
X71107143Y-50365504D01*
X71107143Y-50365504D02*
X71130952Y-50341695D01*
X71130952Y-50341695D02*
X71178571Y-50317885D01*
X71178571Y-50317885D02*
X71297619Y-50317885D01*
X71297619Y-50317885D02*
X71345238Y-50341695D01*
X71345238Y-50341695D02*
X71369047Y-50365504D01*
X71369047Y-50365504D02*
X71392857Y-50413123D01*
X71392857Y-50413123D02*
X71392857Y-50532171D01*
X71392857Y-50532171D02*
X71369047Y-50579790D01*
X71369047Y-50579790D02*
X71345238Y-50603600D01*
X71345238Y-50603600D02*
X71297619Y-50627409D01*
X71297619Y-50627409D02*
X71178571Y-50627409D01*
X71178571Y-50627409D02*
X71130952Y-50603600D01*
X71130952Y-50603600D02*
X71107143Y-50579790D01*
X70617409Y-47593333D02*
X70379314Y-47759999D01*
X70617409Y-47879047D02*
X70117409Y-47879047D01*
X70117409Y-47879047D02*
X70117409Y-47688571D01*
X70117409Y-47688571D02*
X70141219Y-47640952D01*
X70141219Y-47640952D02*
X70165028Y-47617142D01*
X70165028Y-47617142D02*
X70212647Y-47593333D01*
X70212647Y-47593333D02*
X70284076Y-47593333D01*
X70284076Y-47593333D02*
X70331695Y-47617142D01*
X70331695Y-47617142D02*
X70355504Y-47640952D01*
X70355504Y-47640952D02*
X70379314Y-47688571D01*
X70379314Y-47688571D02*
X70379314Y-47879047D01*
X70165028Y-47402856D02*
X70141219Y-47379047D01*
X70141219Y-47379047D02*
X70117409Y-47331428D01*
X70117409Y-47331428D02*
X70117409Y-47212380D01*
X70117409Y-47212380D02*
X70141219Y-47164761D01*
X70141219Y-47164761D02*
X70165028Y-47140952D01*
X70165028Y-47140952D02*
X70212647Y-47117142D01*
X70212647Y-47117142D02*
X70260266Y-47117142D01*
X70260266Y-47117142D02*
X70331695Y-47140952D01*
X70331695Y-47140952D02*
X70617409Y-47426666D01*
X70617409Y-47426666D02*
X70617409Y-47117142D01*
X79416666Y-47779790D02*
X79392857Y-47803600D01*
X79392857Y-47803600D02*
X79321428Y-47827409D01*
X79321428Y-47827409D02*
X79273809Y-47827409D01*
X79273809Y-47827409D02*
X79202381Y-47803600D01*
X79202381Y-47803600D02*
X79154762Y-47755980D01*
X79154762Y-47755980D02*
X79130952Y-47708361D01*
X79130952Y-47708361D02*
X79107143Y-47613123D01*
X79107143Y-47613123D02*
X79107143Y-47541695D01*
X79107143Y-47541695D02*
X79130952Y-47446457D01*
X79130952Y-47446457D02*
X79154762Y-47398838D01*
X79154762Y-47398838D02*
X79202381Y-47351219D01*
X79202381Y-47351219D02*
X79273809Y-47327409D01*
X79273809Y-47327409D02*
X79321428Y-47327409D01*
X79321428Y-47327409D02*
X79392857Y-47351219D01*
X79392857Y-47351219D02*
X79416666Y-47375028D01*
X79702381Y-47541695D02*
X79654762Y-47517885D01*
X79654762Y-47517885D02*
X79630952Y-47494076D01*
X79630952Y-47494076D02*
X79607143Y-47446457D01*
X79607143Y-47446457D02*
X79607143Y-47422647D01*
X79607143Y-47422647D02*
X79630952Y-47375028D01*
X79630952Y-47375028D02*
X79654762Y-47351219D01*
X79654762Y-47351219D02*
X79702381Y-47327409D01*
X79702381Y-47327409D02*
X79797619Y-47327409D01*
X79797619Y-47327409D02*
X79845238Y-47351219D01*
X79845238Y-47351219D02*
X79869047Y-47375028D01*
X79869047Y-47375028D02*
X79892857Y-47422647D01*
X79892857Y-47422647D02*
X79892857Y-47446457D01*
X79892857Y-47446457D02*
X79869047Y-47494076D01*
X79869047Y-47494076D02*
X79845238Y-47517885D01*
X79845238Y-47517885D02*
X79797619Y-47541695D01*
X79797619Y-47541695D02*
X79702381Y-47541695D01*
X79702381Y-47541695D02*
X79654762Y-47565504D01*
X79654762Y-47565504D02*
X79630952Y-47589314D01*
X79630952Y-47589314D02*
X79607143Y-47636933D01*
X79607143Y-47636933D02*
X79607143Y-47732171D01*
X79607143Y-47732171D02*
X79630952Y-47779790D01*
X79630952Y-47779790D02*
X79654762Y-47803600D01*
X79654762Y-47803600D02*
X79702381Y-47827409D01*
X79702381Y-47827409D02*
X79797619Y-47827409D01*
X79797619Y-47827409D02*
X79845238Y-47803600D01*
X79845238Y-47803600D02*
X79869047Y-47779790D01*
X79869047Y-47779790D02*
X79892857Y-47732171D01*
X79892857Y-47732171D02*
X79892857Y-47636933D01*
X79892857Y-47636933D02*
X79869047Y-47589314D01*
X79869047Y-47589314D02*
X79845238Y-47565504D01*
X79845238Y-47565504D02*
X79797619Y-47541695D01*
X78679790Y-45643333D02*
X78703600Y-45667142D01*
X78703600Y-45667142D02*
X78727409Y-45738571D01*
X78727409Y-45738571D02*
X78727409Y-45786190D01*
X78727409Y-45786190D02*
X78703600Y-45857618D01*
X78703600Y-45857618D02*
X78655980Y-45905237D01*
X78655980Y-45905237D02*
X78608361Y-45929047D01*
X78608361Y-45929047D02*
X78513123Y-45952856D01*
X78513123Y-45952856D02*
X78441695Y-45952856D01*
X78441695Y-45952856D02*
X78346457Y-45929047D01*
X78346457Y-45929047D02*
X78298838Y-45905237D01*
X78298838Y-45905237D02*
X78251219Y-45857618D01*
X78251219Y-45857618D02*
X78227409Y-45786190D01*
X78227409Y-45786190D02*
X78227409Y-45738571D01*
X78227409Y-45738571D02*
X78251219Y-45667142D01*
X78251219Y-45667142D02*
X78275028Y-45643333D01*
X78394076Y-45214761D02*
X78727409Y-45214761D01*
X78203600Y-45333809D02*
X78560742Y-45452856D01*
X78560742Y-45452856D02*
X78560742Y-45143333D01*
X69584790Y-43633333D02*
X69608600Y-43657142D01*
X69608600Y-43657142D02*
X69632409Y-43728571D01*
X69632409Y-43728571D02*
X69632409Y-43776190D01*
X69632409Y-43776190D02*
X69608600Y-43847618D01*
X69608600Y-43847618D02*
X69560980Y-43895237D01*
X69560980Y-43895237D02*
X69513361Y-43919047D01*
X69513361Y-43919047D02*
X69418123Y-43942856D01*
X69418123Y-43942856D02*
X69346695Y-43942856D01*
X69346695Y-43942856D02*
X69251457Y-43919047D01*
X69251457Y-43919047D02*
X69203838Y-43895237D01*
X69203838Y-43895237D02*
X69156219Y-43847618D01*
X69156219Y-43847618D02*
X69132409Y-43776190D01*
X69132409Y-43776190D02*
X69132409Y-43728571D01*
X69132409Y-43728571D02*
X69156219Y-43657142D01*
X69156219Y-43657142D02*
X69180028Y-43633333D01*
X69632409Y-43157142D02*
X69632409Y-43442856D01*
X69632409Y-43299999D02*
X69132409Y-43299999D01*
X69132409Y-43299999D02*
X69203838Y-43347618D01*
X69203838Y-43347618D02*
X69251457Y-43395237D01*
X69251457Y-43395237D02*
X69275266Y-43442856D01*
X69666666Y-41854790D02*
X69642857Y-41878600D01*
X69642857Y-41878600D02*
X69571428Y-41902409D01*
X69571428Y-41902409D02*
X69523809Y-41902409D01*
X69523809Y-41902409D02*
X69452381Y-41878600D01*
X69452381Y-41878600D02*
X69404762Y-41830980D01*
X69404762Y-41830980D02*
X69380952Y-41783361D01*
X69380952Y-41783361D02*
X69357143Y-41688123D01*
X69357143Y-41688123D02*
X69357143Y-41616695D01*
X69357143Y-41616695D02*
X69380952Y-41521457D01*
X69380952Y-41521457D02*
X69404762Y-41473838D01*
X69404762Y-41473838D02*
X69452381Y-41426219D01*
X69452381Y-41426219D02*
X69523809Y-41402409D01*
X69523809Y-41402409D02*
X69571428Y-41402409D01*
X69571428Y-41402409D02*
X69642857Y-41426219D01*
X69642857Y-41426219D02*
X69666666Y-41450028D01*
X69833333Y-41402409D02*
X70142857Y-41402409D01*
X70142857Y-41402409D02*
X69976190Y-41592885D01*
X69976190Y-41592885D02*
X70047619Y-41592885D01*
X70047619Y-41592885D02*
X70095238Y-41616695D01*
X70095238Y-41616695D02*
X70119047Y-41640504D01*
X70119047Y-41640504D02*
X70142857Y-41688123D01*
X70142857Y-41688123D02*
X70142857Y-41807171D01*
X70142857Y-41807171D02*
X70119047Y-41854790D01*
X70119047Y-41854790D02*
X70095238Y-41878600D01*
X70095238Y-41878600D02*
X70047619Y-41902409D01*
X70047619Y-41902409D02*
X69904762Y-41902409D01*
X69904762Y-41902409D02*
X69857143Y-41878600D01*
X69857143Y-41878600D02*
X69833333Y-41854790D01*
D11*
%TO.C,L1*%
X77288748Y-41490000D02*
X77811252Y-41490000D01*
X77288748Y-43710000D02*
X77811252Y-43710000D01*
%TO.C,R3*%
X76946359Y-49170000D02*
X77253641Y-49170000D01*
X76946359Y-49930000D02*
X77253641Y-49930000D01*
%TO.C,C2*%
X71777836Y-42560000D02*
X71562164Y-42560000D01*
X71777836Y-43280000D02*
X71562164Y-43280000D01*
%TO.C,R4*%
X72246359Y-49770000D02*
X72553641Y-49770000D01*
X72246359Y-50530000D02*
X72553641Y-50530000D01*
%TO.C,C5*%
X77290000Y-45727836D02*
X77290000Y-45512164D01*
X78010000Y-45727836D02*
X78010000Y-45512164D01*
%TO.C,C7*%
X74240000Y-42477836D02*
X74240000Y-42262164D01*
X74960000Y-42477836D02*
X74960000Y-42262164D01*
%TO.C,C9*%
X76240000Y-47492164D02*
X76240000Y-47707836D01*
X76960000Y-47492164D02*
X76960000Y-47707836D01*
%TO.C,R1*%
X69180000Y-45356359D02*
X69180000Y-45663641D01*
X69940000Y-45356359D02*
X69940000Y-45663641D01*
%TO.C,C6*%
X72980000Y-42477836D02*
X72980000Y-42262164D01*
X73700000Y-42477836D02*
X73700000Y-42262164D01*
%TO.C,R5*%
X74196359Y-49770000D02*
X74503641Y-49770000D01*
X74196359Y-50530000D02*
X74503641Y-50530000D01*
%TO.C,R2*%
X69170000Y-47346359D02*
X69170000Y-47653641D01*
X69930000Y-47346359D02*
X69930000Y-47653641D01*
%TO.C,C8*%
X77290000Y-47492164D02*
X77290000Y-47707836D01*
X78010000Y-47492164D02*
X78010000Y-47707836D01*
%TO.C,C4*%
X76220000Y-45727836D02*
X76220000Y-45512164D01*
X76940000Y-45727836D02*
X76940000Y-45512164D01*
%TO.C,C1*%
X69845000Y-43677836D02*
X69845000Y-43462164D01*
X70565000Y-43677836D02*
X70565000Y-43462164D01*
%TO.C,C3*%
X71832836Y-41440000D02*
X71617164Y-41440000D01*
X71832836Y-42160000D02*
X71617164Y-42160000D01*
%TD*%
M02*
