M48
; DRILL file {KiCad 9.0.4} date 2026-01-26T22:01:16-0600
; FORMAT={-:-/ absolute / inch / decimal}
; #@! TF.CreationDate,2026-01-26T22:01:16-06:00
; #@! TF.GenerationSoftware,Kicad,Pcbnew,9.0.4
; #@! TF.FileFunction,Plated,1,4,PTH
FMAT,2
INCH
; #@! TA.AperFunction,Plated,PTH,ViaDrill
T1C0.0118
; #@! TA.AperFunction,Plated,PTH,ComponentDrill
T2C0.0120
; #@! TA.AperFunction,Plated,PTH,ComponentDrill
T3C0.0256
%
G90
G05
T1
X2.7402Y-1.9134
X2.7648Y-1.6713
X2.7742Y-1.8309
X2.7756Y-1.6457
X2.7778Y-1.8664
X2.8031Y-1.9646
X2.8707Y-1.678
X2.8996Y-1.9272
X2.9058Y-1.6378
X2.9921Y-1.8937
X3.0354Y-1.7579
X3.0787Y-1.7539
X3.0807Y-1.8937
X3.0827Y-1.9488
X3.1063Y-1.8406
T2
X2.8543Y-1.7805
X2.8543Y-1.8159
X2.8543Y-1.8514
X2.8898Y-1.7805
X2.8898Y-1.8159
X2.8898Y-1.8514
X2.9252Y-1.7805
X2.9252Y-1.8159
X2.9252Y-1.8514
T3
X2.6614Y-1.7087
X2.6614Y-1.7677
X2.6614Y-1.8268
X2.6614Y-1.8858
X2.6614Y-1.9449
X3.1791Y-1.7087
X3.1791Y-1.7677
X3.1791Y-1.8268
X3.1791Y-1.8858
X3.1791Y-1.9449
M30
