%TF.GenerationSoftware,KiCad,Pcbnew,9.0.4*%
%TF.CreationDate,2026-01-26T22:01:19-06:00*%
%TF.ProjectId,BatteryBoard,42617474-6572-4794-926f-6172642e6b69,rev?*%
%TF.SameCoordinates,Original*%
%TF.FileFunction,Copper,L2,Inr*%
%TF.FilePolarity,Positive*%
%FSLAX46Y46*%
G04 Gerber Fmt 4.6, Leading zero omitted, Abs format (unit mm)*
G04 Created by KiCad (PCBNEW 9.0.4) date 2026-01-26 22:01:19*
%MOMM*%
%LPD*%
G01*
G04 APERTURE LIST*
%TA.AperFunction,ComponentPad*%
%ADD10C,0.499999*%
%TD*%
%TA.AperFunction,CastellatedPad*%
%ADD11C,1.330000*%
%TD*%
%TA.AperFunction,ViaPad*%
%ADD12C,0.600000*%
%TD*%
G04 APERTURE END LIST*
D10*
%TO.N,GND*%
%TO.C,U1*%
X72499999Y-45224999D03*
X72499999Y-46125000D03*
X72499999Y-47025001D03*
X73399997Y-45224999D03*
X73399997Y-46125000D03*
X73399997Y-47025001D03*
X74299998Y-45224999D03*
X74299998Y-46125000D03*
X74299998Y-47025001D03*
%TD*%
D11*
%TO.N,VBUS*%
%TO.C,J1*%
X67600000Y-43400000D03*
%TO.N,/SCL*%
X67600000Y-44900000D03*
%TO.N,/SDA*%
X67600000Y-46400000D03*
%TO.N,/INT_N*%
X67600000Y-47900000D03*
%TO.N,/CE_N*%
X67600000Y-49400000D03*
%TD*%
%TO.N,GND*%
%TO.C,J2*%
X80750000Y-43400000D03*
%TO.N,/VSYS*%
X80750000Y-44900000D03*
%TO.N,/VBAT*%
X80750000Y-46400000D03*
%TO.N,/BUTTON*%
X80750000Y-47900000D03*
%TO.N,/TS_BAT*%
X80750000Y-49400000D03*
%TD*%
D12*
%TO.N,GND*%
X76000000Y-48100000D03*
X69600000Y-48600000D03*
X70500000Y-41800000D03*
X78250000Y-48100000D03*
X78200000Y-44550000D03*
X77100000Y-44650000D03*
X70225000Y-42450000D03*
X73807299Y-41600000D03*
X71200000Y-49900000D03*
%TO.N,/REGN*%
X78300000Y-49500000D03*
X72916831Y-42620768D03*
%TO.N,/VBAT*%
X78900000Y-46750000D03*
X73650000Y-48950000D03*
%TO.N,/SDA*%
X70556238Y-47406450D03*
%TO.N,/SCL*%
X70465365Y-46505631D03*
%TD*%
%TA.AperFunction,Conductor*%
%TO.N,GND*%
G36*
X80192539Y-41320185D02*
G01*
X80238294Y-41372989D01*
X80249500Y-41424500D01*
X80249500Y-43770958D01*
X80229815Y-43837997D01*
X80181796Y-43881442D01*
X80139143Y-43903175D01*
X79990734Y-44011000D01*
X79990729Y-44011004D01*
X79861004Y-44140729D01*
X79861000Y-44140734D01*
X79753177Y-44289141D01*
X79669890Y-44452600D01*
X79613197Y-44627081D01*
X79584500Y-44808267D01*
X79584500Y-44991732D01*
X79613197Y-45172918D01*
X79669890Y-45347399D01*
X79753176Y-45510857D01*
X79801315Y-45577116D01*
X79824794Y-45642922D01*
X79808968Y-45710976D01*
X79801315Y-45722884D01*
X79753176Y-45789142D01*
X79669890Y-45952598D01*
X79625689Y-46088636D01*
X79586251Y-46146311D01*
X79521892Y-46173509D01*
X79453046Y-46161594D01*
X79420077Y-46137998D01*
X79410292Y-46128213D01*
X79410288Y-46128210D01*
X79279185Y-46040609D01*
X79279172Y-46040602D01*
X79133501Y-45980264D01*
X79133489Y-45980261D01*
X78978845Y-45949500D01*
X78978842Y-45949500D01*
X78821158Y-45949500D01*
X78821155Y-45949500D01*
X78666510Y-45980261D01*
X78666498Y-45980264D01*
X78520827Y-46040602D01*
X78520814Y-46040609D01*
X78389711Y-46128210D01*
X78389707Y-46128213D01*
X78278213Y-46239707D01*
X78278210Y-46239711D01*
X78190609Y-46370814D01*
X78190602Y-46370827D01*
X78130264Y-46516498D01*
X78130261Y-46516510D01*
X78099500Y-46671153D01*
X78099500Y-46828846D01*
X78130261Y-46983489D01*
X78130264Y-46983501D01*
X78190602Y-47129172D01*
X78190609Y-47129185D01*
X78278210Y-47260288D01*
X78278213Y-47260292D01*
X78389707Y-47371786D01*
X78389711Y-47371789D01*
X78520814Y-47459390D01*
X78520827Y-47459397D01*
X78583354Y-47485296D01*
X78666503Y-47519737D01*
X78821153Y-47550499D01*
X78821156Y-47550500D01*
X78821158Y-47550500D01*
X78978844Y-47550500D01*
X78978845Y-47550499D01*
X79133497Y-47519737D01*
X79279179Y-47459394D01*
X79410289Y-47371789D01*
X79469927Y-47312150D01*
X79531248Y-47278667D01*
X79600940Y-47283651D01*
X79656874Y-47325522D01*
X79681291Y-47390986D01*
X79669897Y-47447324D01*
X79671756Y-47448094D01*
X79669891Y-47452596D01*
X79613197Y-47627081D01*
X79584500Y-47808267D01*
X79584500Y-47991732D01*
X79604158Y-48115847D01*
X79613198Y-48172922D01*
X79624254Y-48206950D01*
X79669890Y-48347399D01*
X79753176Y-48510857D01*
X79801315Y-48577116D01*
X79824794Y-48642922D01*
X79808968Y-48710976D01*
X79801315Y-48722884D01*
X79753176Y-48789142D01*
X79669890Y-48952600D01*
X79613197Y-49127081D01*
X79584500Y-49308267D01*
X79584500Y-49491732D01*
X79613197Y-49672918D01*
X79613198Y-49672922D01*
X79669889Y-49847397D01*
X79752888Y-50010292D01*
X79753177Y-50010858D01*
X79861000Y-50159265D01*
X79861004Y-50159270D01*
X79990729Y-50288995D01*
X79990734Y-50288999D01*
X80137292Y-50395478D01*
X80139145Y-50396825D01*
X80174846Y-50415015D01*
X80225642Y-50462989D01*
X80242438Y-50530809D01*
X80219901Y-50596945D01*
X80165187Y-50640397D01*
X80118552Y-50649500D01*
X68231448Y-50649500D01*
X68164409Y-50629815D01*
X68118654Y-50577011D01*
X68108710Y-50507853D01*
X68137735Y-50444297D01*
X68175152Y-50415015D01*
X68210855Y-50396825D01*
X68359272Y-50288994D01*
X68488994Y-50159272D01*
X68596825Y-50010855D01*
X68680111Y-49847397D01*
X68736802Y-49672922D01*
X68752820Y-49571786D01*
X68765500Y-49491732D01*
X68765500Y-49308267D01*
X68736802Y-49127081D01*
X68736802Y-49127078D01*
X68680111Y-48952603D01*
X68680109Y-48952600D01*
X68680109Y-48952598D01*
X68665817Y-48924550D01*
X68638610Y-48871153D01*
X72849500Y-48871153D01*
X72849500Y-49028846D01*
X72880261Y-49183489D01*
X72880264Y-49183501D01*
X72940602Y-49329172D01*
X72940609Y-49329185D01*
X73028210Y-49460288D01*
X73028213Y-49460292D01*
X73139707Y-49571786D01*
X73139711Y-49571789D01*
X73270814Y-49659390D01*
X73270827Y-49659397D01*
X73416498Y-49719735D01*
X73416503Y-49719737D01*
X73571153Y-49750499D01*
X73571156Y-49750500D01*
X73571158Y-49750500D01*
X73728844Y-49750500D01*
X73728845Y-49750499D01*
X73883497Y-49719737D01*
X74029179Y-49659394D01*
X74160289Y-49571789D01*
X74271789Y-49460289D01*
X74297939Y-49421153D01*
X77499500Y-49421153D01*
X77499500Y-49578846D01*
X77530261Y-49733489D01*
X77530264Y-49733501D01*
X77590602Y-49879172D01*
X77590609Y-49879185D01*
X77678210Y-50010288D01*
X77678213Y-50010292D01*
X77789707Y-50121786D01*
X77789711Y-50121789D01*
X77920814Y-50209390D01*
X77920827Y-50209397D01*
X78066498Y-50269735D01*
X78066503Y-50269737D01*
X78221153Y-50300499D01*
X78221156Y-50300500D01*
X78221158Y-50300500D01*
X78378844Y-50300500D01*
X78378845Y-50300499D01*
X78533497Y-50269737D01*
X78679179Y-50209394D01*
X78810289Y-50121789D01*
X78921789Y-50010289D01*
X79009394Y-49879179D01*
X79069737Y-49733497D01*
X79100500Y-49578842D01*
X79100500Y-49421158D01*
X79100500Y-49421155D01*
X79100499Y-49421153D01*
X79085585Y-49346175D01*
X79069737Y-49266503D01*
X79011986Y-49127078D01*
X79009397Y-49120827D01*
X79009390Y-49120814D01*
X78921789Y-48989711D01*
X78921786Y-48989707D01*
X78810292Y-48878213D01*
X78810288Y-48878210D01*
X78679185Y-48790609D01*
X78679172Y-48790602D01*
X78533501Y-48730264D01*
X78533489Y-48730261D01*
X78378845Y-48699500D01*
X78378842Y-48699500D01*
X78221158Y-48699500D01*
X78221155Y-48699500D01*
X78066510Y-48730261D01*
X78066498Y-48730264D01*
X77920827Y-48790602D01*
X77920814Y-48790609D01*
X77789711Y-48878210D01*
X77789707Y-48878213D01*
X77678213Y-48989707D01*
X77678210Y-48989711D01*
X77590609Y-49120814D01*
X77590602Y-49120827D01*
X77530264Y-49266498D01*
X77530261Y-49266510D01*
X77499500Y-49421153D01*
X74297939Y-49421153D01*
X74359394Y-49329179D01*
X74368054Y-49308273D01*
X74419735Y-49183501D01*
X74419737Y-49183497D01*
X74450500Y-49028842D01*
X74450500Y-48871158D01*
X74450500Y-48871155D01*
X74450499Y-48871153D01*
X74419737Y-48716503D01*
X74406440Y-48684401D01*
X74359397Y-48570827D01*
X74359390Y-48570814D01*
X74271789Y-48439711D01*
X74271786Y-48439707D01*
X74160292Y-48328213D01*
X74160288Y-48328210D01*
X74029185Y-48240609D01*
X74029172Y-48240602D01*
X73883501Y-48180264D01*
X73883489Y-48180261D01*
X73728845Y-48149500D01*
X73728842Y-48149500D01*
X73571158Y-48149500D01*
X73571155Y-48149500D01*
X73416510Y-48180261D01*
X73416498Y-48180264D01*
X73270827Y-48240602D01*
X73270814Y-48240609D01*
X73139711Y-48328210D01*
X73139707Y-48328213D01*
X73028213Y-48439707D01*
X73028210Y-48439711D01*
X72940609Y-48570814D01*
X72940602Y-48570827D01*
X72880264Y-48716498D01*
X72880261Y-48716510D01*
X72849500Y-48871153D01*
X68638610Y-48871153D01*
X68596825Y-48789145D01*
X68545051Y-48717885D01*
X68541941Y-48712562D01*
X68534952Y-48684401D01*
X68525204Y-48657080D01*
X68526640Y-48650903D01*
X68525113Y-48644749D01*
X68534458Y-48617283D01*
X68541029Y-48589026D01*
X68547496Y-48578963D01*
X68547619Y-48578603D01*
X68547841Y-48578425D01*
X68548685Y-48577114D01*
X68596822Y-48510859D01*
X68596821Y-48510859D01*
X68596825Y-48510855D01*
X68680111Y-48347397D01*
X68736802Y-48172922D01*
X68749556Y-48092390D01*
X68765500Y-47991732D01*
X68765500Y-47808267D01*
X68746368Y-47687476D01*
X68736802Y-47627078D01*
X68680111Y-47452603D01*
X68596825Y-47289145D01*
X68596823Y-47289142D01*
X68596822Y-47289140D01*
X68548685Y-47222886D01*
X68525204Y-47157080D01*
X68541029Y-47089026D01*
X68548685Y-47077114D01*
X68596822Y-47010859D01*
X68596821Y-47010859D01*
X68596825Y-47010855D01*
X68680111Y-46847397D01*
X68736802Y-46672922D01*
X68761575Y-46516510D01*
X68765500Y-46491732D01*
X68765500Y-46426784D01*
X69664865Y-46426784D01*
X69664865Y-46584477D01*
X69695626Y-46739120D01*
X69695629Y-46739132D01*
X69755967Y-46884803D01*
X69755977Y-46884821D01*
X69811672Y-46968175D01*
X69832550Y-47034852D01*
X69823131Y-47084517D01*
X69786501Y-47172953D01*
X69786500Y-47172956D01*
X69786500Y-47172957D01*
X69786499Y-47172960D01*
X69755738Y-47327603D01*
X69755738Y-47485296D01*
X69786499Y-47639939D01*
X69786502Y-47639951D01*
X69846840Y-47785622D01*
X69846847Y-47785635D01*
X69934448Y-47916738D01*
X69934451Y-47916742D01*
X70045945Y-48028236D01*
X70045949Y-48028239D01*
X70177052Y-48115840D01*
X70177065Y-48115847D01*
X70322736Y-48176185D01*
X70322741Y-48176187D01*
X70477391Y-48206949D01*
X70477394Y-48206950D01*
X70477396Y-48206950D01*
X70635082Y-48206950D01*
X70635083Y-48206949D01*
X70789735Y-48176187D01*
X70935417Y-48115844D01*
X71066527Y-48028239D01*
X71178027Y-47916739D01*
X71265632Y-47785629D01*
X71325975Y-47639947D01*
X71356738Y-47485292D01*
X71356738Y-47327608D01*
X71356738Y-47327605D01*
X71356737Y-47327603D01*
X71325976Y-47172960D01*
X71325975Y-47172953D01*
X71307846Y-47129185D01*
X71265635Y-47027277D01*
X71265628Y-47027264D01*
X71209930Y-46943906D01*
X71189052Y-46877228D01*
X71198470Y-46827565D01*
X71235102Y-46739128D01*
X71265865Y-46584473D01*
X71265865Y-46426789D01*
X71265865Y-46426786D01*
X71265864Y-46426784D01*
X71247321Y-46333564D01*
X71235102Y-46272134D01*
X71221672Y-46239711D01*
X71174762Y-46126458D01*
X71174755Y-46126445D01*
X71087154Y-45995342D01*
X71087151Y-45995338D01*
X70975657Y-45883844D01*
X70975653Y-45883841D01*
X70844550Y-45796240D01*
X70844537Y-45796233D01*
X70698866Y-45735895D01*
X70698854Y-45735892D01*
X70544210Y-45705131D01*
X70544207Y-45705131D01*
X70386523Y-45705131D01*
X70386520Y-45705131D01*
X70231875Y-45735892D01*
X70231863Y-45735895D01*
X70086192Y-45796233D01*
X70086179Y-45796240D01*
X69955076Y-45883841D01*
X69955072Y-45883844D01*
X69843578Y-45995338D01*
X69843575Y-45995342D01*
X69755974Y-46126445D01*
X69755967Y-46126458D01*
X69695629Y-46272129D01*
X69695626Y-46272141D01*
X69664865Y-46426784D01*
X68765500Y-46426784D01*
X68765500Y-46308267D01*
X68739848Y-46146311D01*
X68736802Y-46127078D01*
X68680111Y-45952603D01*
X68596825Y-45789145D01*
X68596823Y-45789142D01*
X68596822Y-45789140D01*
X68548685Y-45722886D01*
X68525204Y-45657080D01*
X68541029Y-45589026D01*
X68548685Y-45577114D01*
X68596822Y-45510859D01*
X68596821Y-45510859D01*
X68596825Y-45510855D01*
X68680111Y-45347397D01*
X68736802Y-45172922D01*
X68749556Y-45092390D01*
X68765500Y-44991732D01*
X68765500Y-44808267D01*
X68736802Y-44627081D01*
X68736802Y-44627078D01*
X68680111Y-44452603D01*
X68596825Y-44289145D01*
X68596823Y-44289142D01*
X68596822Y-44289140D01*
X68548685Y-44222886D01*
X68525204Y-44157080D01*
X68541029Y-44089026D01*
X68548685Y-44077114D01*
X68596822Y-44010859D01*
X68596821Y-44010859D01*
X68596825Y-44010855D01*
X68680111Y-43847397D01*
X68736802Y-43672922D01*
X68749556Y-43592390D01*
X68765500Y-43491732D01*
X68765500Y-43308267D01*
X68746368Y-43187476D01*
X68736802Y-43127078D01*
X68680111Y-42952603D01*
X68596825Y-42789145D01*
X68531776Y-42699612D01*
X68488999Y-42640734D01*
X68488995Y-42640729D01*
X68390187Y-42541921D01*
X72116331Y-42541921D01*
X72116331Y-42699614D01*
X72147092Y-42854257D01*
X72147095Y-42854269D01*
X72207433Y-42999940D01*
X72207440Y-42999953D01*
X72295041Y-43131056D01*
X72295044Y-43131060D01*
X72406538Y-43242554D01*
X72406542Y-43242557D01*
X72537645Y-43330158D01*
X72537658Y-43330165D01*
X72683329Y-43390503D01*
X72683334Y-43390505D01*
X72837984Y-43421267D01*
X72837987Y-43421268D01*
X72837989Y-43421268D01*
X72995675Y-43421268D01*
X72995676Y-43421267D01*
X73150328Y-43390505D01*
X73296010Y-43330162D01*
X73427120Y-43242557D01*
X73538620Y-43131057D01*
X73626225Y-42999947D01*
X73686568Y-42854265D01*
X73717331Y-42699610D01*
X73717331Y-42541926D01*
X73717331Y-42541923D01*
X73717330Y-42541921D01*
X73711179Y-42511000D01*
X73686568Y-42387271D01*
X73638390Y-42270958D01*
X73626228Y-42241595D01*
X73626221Y-42241582D01*
X73538620Y-42110479D01*
X73538617Y-42110475D01*
X73427123Y-41998981D01*
X73427119Y-41998978D01*
X73296016Y-41911377D01*
X73296003Y-41911370D01*
X73150332Y-41851032D01*
X73150320Y-41851029D01*
X72995676Y-41820268D01*
X72995673Y-41820268D01*
X72837989Y-41820268D01*
X72837986Y-41820268D01*
X72683341Y-41851029D01*
X72683329Y-41851032D01*
X72537658Y-41911370D01*
X72537645Y-41911377D01*
X72406542Y-41998978D01*
X72406538Y-41998981D01*
X72295044Y-42110475D01*
X72295041Y-42110479D01*
X72207440Y-42241582D01*
X72207433Y-42241595D01*
X72147095Y-42387266D01*
X72147092Y-42387278D01*
X72116331Y-42541921D01*
X68390187Y-42541921D01*
X68359270Y-42511004D01*
X68359265Y-42511000D01*
X68210856Y-42403175D01*
X68168204Y-42381442D01*
X68117408Y-42333467D01*
X68100500Y-42270958D01*
X68100500Y-41424500D01*
X68120185Y-41357461D01*
X68172989Y-41311706D01*
X68224500Y-41300500D01*
X80125500Y-41300500D01*
X80192539Y-41320185D01*
G37*
%TD.AperFunction*%
%TD*%
M02*
