%TF.GenerationSoftware,KiCad,Pcbnew,9.0.4*%
%TF.CreationDate,2026-01-26T22:01:19-06:00*%
%TF.ProjectId,BatteryBoard,42617474-6572-4794-926f-6172642e6b69,rev?*%
%TF.SameCoordinates,Original*%
%TF.FileFunction,Copper,L4,Bot*%
%TF.FilePolarity,Positive*%
%FSLAX46Y46*%
G04 Gerber Fmt 4.6, Leading zero omitted, Abs format (unit mm)*
G04 Created by KiCad (PCBNEW 9.0.4) date 2026-01-26 22:01:19*
%MOMM*%
%LPD*%
G01*
G04 APERTURE LIST*
%TA.AperFunction,ComponentPad*%
%ADD10C,0.499999*%
%TD*%
%TA.AperFunction,CastellatedPad*%
%ADD11C,1.330000*%
%TD*%
%TA.AperFunction,ViaPad*%
%ADD12C,0.600000*%
%TD*%
%TA.AperFunction,Conductor*%
%ADD13C,0.200000*%
%TD*%
G04 APERTURE END LIST*
D10*
%TO.P,U1,25,PAD*%
%TO.N,GND*%
X72499999Y-45224999D03*
X72499999Y-46125000D03*
X72499999Y-47025001D03*
X73399997Y-45224999D03*
X73399997Y-46125000D03*
X73399997Y-47025001D03*
X74299998Y-45224999D03*
X74299998Y-46125000D03*
X74299998Y-47025001D03*
%TD*%
D11*
%TO.P,J1,1,Pin_1*%
%TO.N,VBUS*%
X67600000Y-43400000D03*
%TO.P,J1,2,Pin_2*%
%TO.N,/SCL*%
X67600000Y-44900000D03*
%TO.P,J1,3,Pin_3*%
%TO.N,/SDA*%
X67600000Y-46400000D03*
%TO.P,J1,4,Pin_4*%
%TO.N,/INT_N*%
X67600000Y-47900000D03*
%TO.P,J1,5,Pin_5*%
%TO.N,/CE_N*%
X67600000Y-49400000D03*
%TD*%
%TO.P,J2,1,Pin_1*%
%TO.N,GND*%
X80750000Y-43400000D03*
%TO.P,J2,2,Pin_2*%
%TO.N,/VSYS*%
X80750000Y-44900000D03*
%TO.P,J2,3,Pin_3*%
%TO.N,/VBAT*%
X80750000Y-46400000D03*
%TO.P,J2,4,Pin_4*%
%TO.N,/BUTTON*%
X80750000Y-47900000D03*
%TO.P,J2,5,Pin_5*%
%TO.N,/TS_BAT*%
X80750000Y-49400000D03*
%TD*%
D12*
%TO.N,GND*%
X76000000Y-48100000D03*
X69600000Y-48600000D03*
X70500000Y-41800000D03*
X78250000Y-48100000D03*
X78200000Y-44550000D03*
X77100000Y-44650000D03*
X70225000Y-42450000D03*
X73807299Y-41600000D03*
X71200000Y-49900000D03*
%TO.N,/REGN*%
X78300000Y-49500000D03*
X72916831Y-42620768D03*
%TO.N,/VBAT*%
X78900000Y-46750000D03*
X73650000Y-48950000D03*
%TO.N,/SDA*%
X70556238Y-47406450D03*
%TO.N,/SCL*%
X70465365Y-46505631D03*
%TD*%
D13*
%TO.N,/REGN*%
X72916831Y-42620768D02*
X76445063Y-46149000D01*
X79501000Y-48299000D02*
X78300000Y-49500000D01*
X79148943Y-46149000D02*
X79501000Y-46501057D01*
X79501000Y-46501057D02*
X79501000Y-48299000D01*
X76445063Y-46149000D02*
X79148943Y-46149000D01*
%TO.N,/VBAT*%
X73650000Y-48950000D02*
X73650000Y-47900000D01*
X75000000Y-47104230D02*
X78545770Y-47104230D01*
X74204230Y-47900000D02*
X75000000Y-47104230D01*
X73650000Y-47900000D02*
X74204230Y-47900000D01*
X78545770Y-47104230D02*
X78900000Y-46750000D01*
%TO.N,/SDA*%
X67600000Y-46400000D02*
X68550000Y-46400000D01*
X69556450Y-47406450D02*
X70556238Y-47406450D01*
X68550000Y-46400000D02*
X69556450Y-47406450D01*
%TO.N,/SCL*%
X67625000Y-44925000D02*
X68200000Y-44925000D01*
X67600000Y-44900000D02*
X67625000Y-44925000D01*
X68200000Y-44925000D02*
X69780631Y-46505631D01*
X69780631Y-46505631D02*
X70465365Y-46505631D01*
%TD*%
%TA.AperFunction,Conductor*%
%TO.N,/REGN*%
G36*
X73171175Y-42464884D02*
G01*
X73172024Y-42466394D01*
X73243911Y-42620061D01*
X73363622Y-42875961D01*
X73404253Y-42962814D01*
X73404654Y-42971760D01*
X73401928Y-42976045D01*
X73272108Y-43105865D01*
X73263835Y-43109292D01*
X73258878Y-43108190D01*
X73108259Y-43037729D01*
X72762457Y-42875961D01*
X72756416Y-42869351D01*
X72756817Y-42860405D01*
X72757666Y-42858895D01*
X72914816Y-42622031D01*
X72918094Y-42618753D01*
X73154958Y-42461602D01*
X73163746Y-42459884D01*
X73171175Y-42464884D01*
G37*
%TD.AperFunction*%
%TD*%
%TA.AperFunction,Conductor*%
%TO.N,/REGN*%
G36*
X78655277Y-49014902D02*
G01*
X78785097Y-49144722D01*
X78788524Y-49152995D01*
X78787422Y-49157953D01*
X78555193Y-49654373D01*
X78548583Y-49660414D01*
X78539637Y-49660013D01*
X78538127Y-49659164D01*
X78301265Y-49502015D01*
X78297984Y-49498734D01*
X78140835Y-49261872D01*
X78139116Y-49253084D01*
X78144116Y-49245655D01*
X78145621Y-49244808D01*
X78642048Y-49012576D01*
X78650992Y-49012176D01*
X78655277Y-49014902D01*
G37*
%TD.AperFunction*%
%TD*%
%TA.AperFunction,Conductor*%
%TO.N,/VBAT*%
G36*
X73750070Y-48359191D02*
G01*
X73752796Y-48363476D01*
X73939608Y-48878709D01*
X73939207Y-48887655D01*
X73932597Y-48893696D01*
X73930929Y-48894165D01*
X73652320Y-48950530D01*
X73647680Y-48950530D01*
X73369070Y-48894165D01*
X73361641Y-48889165D01*
X73359922Y-48880377D01*
X73360387Y-48878720D01*
X73547204Y-48363476D01*
X73553245Y-48356866D01*
X73558203Y-48355764D01*
X73741797Y-48355764D01*
X73750070Y-48359191D01*
G37*
%TD.AperFunction*%
%TD*%
%TA.AperFunction,Conductor*%
%TO.N,/VBAT*%
G36*
X78660351Y-46589998D02*
G01*
X78661851Y-46590844D01*
X78896935Y-46747295D01*
X78901924Y-46754731D01*
X78901936Y-46754790D01*
X78956522Y-47033984D01*
X78954746Y-47042761D01*
X78948566Y-47047385D01*
X78467718Y-47199415D01*
X78458797Y-47198641D01*
X78453035Y-47191786D01*
X78452491Y-47188259D01*
X78452491Y-47006844D01*
X78453605Y-47001862D01*
X78644783Y-46595601D01*
X78651406Y-46589576D01*
X78660351Y-46589998D01*
G37*
%TD.AperFunction*%
%TD*%
%TA.AperFunction,Conductor*%
%TO.N,/SDA*%
G36*
X70493893Y-47117242D02*
G01*
X70499934Y-47123852D01*
X70500403Y-47125520D01*
X70556768Y-47404130D01*
X70556768Y-47408770D01*
X70500403Y-47687379D01*
X70495403Y-47694808D01*
X70486615Y-47696527D01*
X70484947Y-47696058D01*
X69969714Y-47509246D01*
X69963104Y-47503205D01*
X69962002Y-47498247D01*
X69962002Y-47314652D01*
X69965429Y-47306379D01*
X69969711Y-47303654D01*
X70484949Y-47116841D01*
X70493893Y-47117242D01*
G37*
%TD.AperFunction*%
%TD*%
%TA.AperFunction,Conductor*%
%TO.N,/SCL*%
G36*
X70403020Y-46216423D02*
G01*
X70409061Y-46223033D01*
X70409530Y-46224701D01*
X70465895Y-46503311D01*
X70465895Y-46507951D01*
X70409530Y-46786560D01*
X70404530Y-46793989D01*
X70395742Y-46795708D01*
X70394074Y-46795239D01*
X69878841Y-46608427D01*
X69872231Y-46602386D01*
X69871129Y-46597428D01*
X69871129Y-46413833D01*
X69874556Y-46405560D01*
X69878838Y-46402835D01*
X70394076Y-46216022D01*
X70403020Y-46216423D01*
G37*
%TD.AperFunction*%
%TD*%
M02*
