%TF.GenerationSoftware,KiCad,Pcbnew,9.0.4*%
%TF.CreationDate,2026-01-26T22:01:19-06:00*%
%TF.ProjectId,BatteryBoard,42617474-6572-4794-926f-6172642e6b69,rev?*%
%TF.SameCoordinates,Original*%
%TF.FileFunction,Copper,L1,Top*%
%TF.FilePolarity,Positive*%
%FSLAX46Y46*%
G04 Gerber Fmt 4.6, Leading zero omitted, Abs format (unit mm)*
G04 Created by KiCad (PCBNEW 9.0.4) date 2026-01-26 22:01:19*
%MOMM*%
%LPD*%
G01*
G04 APERTURE LIST*
G04 Aperture macros list*
%AMRoundRect*
0 Rectangle with rounded corners*
0 $1 Rounding radius*
0 $2 $3 $4 $5 $6 $7 $8 $9 X,Y pos of 4 corners*
0 Add a 4 corners polygon primitive as box body*
4,1,4,$2,$3,$4,$5,$6,$7,$8,$9,$2,$3,0*
0 Add four circle primitives for the rounded corners*
1,1,$1+$1,$2,$3*
1,1,$1+$1,$4,$5*
1,1,$1+$1,$6,$7*
1,1,$1+$1,$8,$9*
0 Add four rect primitives between the rounded corners*
20,1,$1+$1,$2,$3,$4,$5,0*
20,1,$1+$1,$4,$5,$6,$7,0*
20,1,$1+$1,$6,$7,$8,$9,0*
20,1,$1+$1,$8,$9,$2,$3,0*%
G04 Aperture macros list end*
%TA.AperFunction,SMDPad,CuDef*%
%ADD10RoundRect,0.250000X-0.375000X-0.850000X0.375000X-0.850000X0.375000X0.850000X-0.375000X0.850000X0*%
%TD*%
%TA.AperFunction,SMDPad,CuDef*%
%ADD11RoundRect,0.135000X-0.135000X-0.185000X0.135000X-0.185000X0.135000X0.185000X-0.135000X0.185000X0*%
%TD*%
%TA.AperFunction,SMDPad,CuDef*%
%ADD12RoundRect,0.140000X0.140000X0.170000X-0.140000X0.170000X-0.140000X-0.170000X0.140000X-0.170000X0*%
%TD*%
%TA.AperFunction,SMDPad,CuDef*%
%ADD13R,0.850001X0.279999*%
%TD*%
%TA.AperFunction,SMDPad,CuDef*%
%ADD14R,0.279999X0.850001*%
%TD*%
%TA.AperFunction,ComponentPad*%
%ADD15C,0.499999*%
%TD*%
%TA.AperFunction,SMDPad,CuDef*%
%ADD16R,2.700000X2.700000*%
%TD*%
%TA.AperFunction,SMDPad,CuDef*%
%ADD17RoundRect,0.140000X0.170000X-0.140000X0.170000X0.140000X-0.170000X0.140000X-0.170000X-0.140000X0*%
%TD*%
%TA.AperFunction,CastellatedPad*%
%ADD18C,1.330000*%
%TD*%
%TA.AperFunction,SMDPad,CuDef*%
%ADD19RoundRect,0.140000X-0.170000X0.140000X-0.170000X-0.140000X0.170000X-0.140000X0.170000X0.140000X0*%
%TD*%
%TA.AperFunction,SMDPad,CuDef*%
%ADD20RoundRect,0.135000X-0.185000X0.135000X-0.185000X-0.135000X0.185000X-0.135000X0.185000X0.135000X0*%
%TD*%
%TA.AperFunction,ViaPad*%
%ADD21C,0.600000*%
%TD*%
%TA.AperFunction,Conductor*%
%ADD22C,0.300000*%
%TD*%
%TA.AperFunction,Conductor*%
%ADD23C,0.200000*%
%TD*%
G04 APERTURE END LIST*
D10*
%TO.P,L1,1,1*%
%TO.N,/SW*%
X76475000Y-42600000D03*
%TO.P,L1,2,2*%
%TO.N,/VSYS*%
X78625000Y-42600000D03*
%TD*%
D11*
%TO.P,R3,1*%
%TO.N,/TS*%
X76590001Y-49550000D03*
%TO.P,R3,2*%
%TO.N,/REGN*%
X77609999Y-49550000D03*
%TD*%
D12*
%TO.P,C2,1*%
%TO.N,/PMID*%
X72150000Y-42920000D03*
%TO.P,C2,2*%
%TO.N,GND*%
X71190000Y-42920000D03*
%TD*%
D11*
%TO.P,R4,1*%
%TO.N,GND*%
X71890001Y-50150000D03*
%TO.P,R4,2*%
%TO.N,/TS*%
X72909999Y-50150000D03*
%TD*%
D13*
%TO.P,U1,1,VAC*%
%TO.N,VBUS*%
X71424997Y-44874997D03*
%TO.P,U1,2,PSEL*%
%TO.N,/PSEL*%
X71424997Y-45374996D03*
%TO.P,U1,3,PMID_GOOD*%
%TO.N,unconnected-(U1-PMID_GOOD-Pad3)*%
X71424997Y-45874998D03*
%TO.P,U1,4,STAT*%
%TO.N,unconnected-(U1-STAT-Pad4)*%
X71424997Y-46374997D03*
%TO.P,U1,5,SCL*%
%TO.N,/SCL*%
X71424997Y-46874998D03*
%TO.P,U1,6,SDA*%
%TO.N,/SDA*%
X71424997Y-47374997D03*
D14*
%TO.P,U1,7,INT_N*%
%TO.N,/INT_N*%
X72149994Y-48100000D03*
%TO.P,U1,8,NC*%
%TO.N,unconnected-(U1-NC-Pad8)*%
X72649993Y-48100000D03*
%TO.P,U1,9,CE_N*%
%TO.N,/CE_N*%
X73149995Y-48100000D03*
%TO.P,U1,10,BATSNS*%
%TO.N,/VBAT*%
X73649994Y-48100000D03*
%TO.P,U1,11,TS*%
%TO.N,/TS*%
X74149995Y-48100000D03*
%TO.P,U1,12,QON_N*%
%TO.N,/BUTTON*%
X74649994Y-48100000D03*
D13*
%TO.P,U1,13,BAT*%
%TO.N,/VBAT*%
X75374997Y-47375003D03*
%TO.P,U1,14,BAT*%
X75374997Y-46875004D03*
%TO.P,U1,15,SYS*%
%TO.N,/VSYS*%
X75374997Y-46375002D03*
%TO.P,U1,16,SYS*%
X75374997Y-45875003D03*
%TO.P,U1,17,PGND*%
%TO.N,GND*%
X75374997Y-45375002D03*
%TO.P,U1,18,PGND*%
X75374997Y-44875003D03*
D14*
%TO.P,U1,19,SW*%
%TO.N,/SW*%
X74650000Y-44150000D03*
%TO.P,U1,20,SW*%
X74150001Y-44150000D03*
%TO.P,U1,21,BTST*%
%TO.N,Net-(U1-BTST)*%
X73649999Y-44150000D03*
%TO.P,U1,22,REGN*%
%TO.N,/REGN*%
X73150000Y-44150000D03*
%TO.P,U1,23,PMID*%
%TO.N,/PMID*%
X72649999Y-44150000D03*
%TO.P,U1,24,VBUS*%
%TO.N,VBUS*%
X72150000Y-44150000D03*
D15*
%TO.P,U1,25,PAD*%
%TO.N,GND*%
X72499999Y-45224999D03*
X72499999Y-46125000D03*
X72499999Y-47025001D03*
X73399997Y-45224999D03*
X73399997Y-46125000D03*
D16*
X73399997Y-46125000D03*
D15*
X73399997Y-47025001D03*
X74299998Y-45224999D03*
X74299998Y-46125000D03*
X74299998Y-47025001D03*
%TD*%
D17*
%TO.P,C5,1*%
%TO.N,/VSYS*%
X77650000Y-46100000D03*
%TO.P,C5,2*%
%TO.N,GND*%
X77650000Y-45140000D03*
%TD*%
%TO.P,C7,1*%
%TO.N,/SW*%
X74600000Y-42850000D03*
%TO.P,C7,2*%
%TO.N,Net-(U1-BTST)*%
X74600000Y-41890000D03*
%TD*%
D18*
%TO.P,J1,1,Pin_1*%
%TO.N,VBUS*%
X67600000Y-43400000D03*
%TO.P,J1,2,Pin_2*%
%TO.N,/SCL*%
X67600000Y-44900000D03*
%TO.P,J1,3,Pin_3*%
%TO.N,/SDA*%
X67600000Y-46400000D03*
%TO.P,J1,4,Pin_4*%
%TO.N,/INT_N*%
X67600000Y-47900000D03*
%TO.P,J1,5,Pin_5*%
%TO.N,/CE_N*%
X67600000Y-49400000D03*
%TD*%
D19*
%TO.P,C9,1*%
%TO.N,/VBAT*%
X76600000Y-47120000D03*
%TO.P,C9,2*%
%TO.N,GND*%
X76600000Y-48080000D03*
%TD*%
D18*
%TO.P,J2,1,Pin_1*%
%TO.N,GND*%
X80750000Y-43400000D03*
%TO.P,J2,2,Pin_2*%
%TO.N,/VSYS*%
X80750000Y-44900000D03*
%TO.P,J2,3,Pin_3*%
%TO.N,/VBAT*%
X80750000Y-46400000D03*
%TO.P,J2,4,Pin_4*%
%TO.N,/BUTTON*%
X80750000Y-47900000D03*
%TO.P,J2,5,Pin_5*%
%TO.N,/TS_BAT*%
X80750000Y-49400000D03*
%TD*%
D20*
%TO.P,R1,1*%
%TO.N,VBUS*%
X69560000Y-45000001D03*
%TO.P,R1,2*%
%TO.N,/PSEL*%
X69560000Y-46019999D03*
%TD*%
D17*
%TO.P,C6,1*%
%TO.N,/REGN*%
X73340000Y-42850000D03*
%TO.P,C6,2*%
%TO.N,GND*%
X73340000Y-41890000D03*
%TD*%
D11*
%TO.P,R5,1*%
%TO.N,/TS*%
X73840001Y-50150000D03*
%TO.P,R5,2*%
%TO.N,/TS_BAT*%
X74859999Y-50150000D03*
%TD*%
D20*
%TO.P,R2,1*%
%TO.N,/PSEL*%
X69550000Y-46990001D03*
%TO.P,R2,2*%
%TO.N,GND*%
X69550000Y-48009999D03*
%TD*%
D19*
%TO.P,C8,1*%
%TO.N,/VBAT*%
X77650000Y-47120000D03*
%TO.P,C8,2*%
%TO.N,GND*%
X77650000Y-48080000D03*
%TD*%
D17*
%TO.P,C4,1*%
%TO.N,/VSYS*%
X76580000Y-46100000D03*
%TO.P,C4,2*%
%TO.N,GND*%
X76580000Y-45140000D03*
%TD*%
%TO.P,C1,1*%
%TO.N,VBUS*%
X70205000Y-44050000D03*
%TO.P,C1,2*%
%TO.N,GND*%
X70205000Y-43090000D03*
%TD*%
D12*
%TO.P,C3,1*%
%TO.N,/PMID*%
X72205000Y-41800000D03*
%TO.P,C3,2*%
%TO.N,GND*%
X71245000Y-41800000D03*
%TD*%
D21*
%TO.N,GND*%
X76000000Y-48100000D03*
X69600000Y-48600000D03*
X70500000Y-41800000D03*
X78250000Y-48100000D03*
X78200000Y-44550000D03*
X77100000Y-44650000D03*
X70225000Y-42450000D03*
X73807299Y-41600000D03*
X71200000Y-49900000D03*
%TO.N,/REGN*%
X78300000Y-49500000D03*
X72916831Y-42620768D03*
%TO.N,/VBAT*%
X78900000Y-46750000D03*
X73650000Y-48950000D03*
%TO.N,/SDA*%
X70556238Y-47406450D03*
%TO.N,/SCL*%
X70465365Y-46505631D03*
%TD*%
D22*
%TO.N,VBUS*%
X67600000Y-43400000D02*
X67600000Y-43450000D01*
X71424997Y-44874997D02*
X69685004Y-44874997D01*
X69685004Y-44874997D02*
X69560000Y-45000001D01*
X72050000Y-44050000D02*
X72150000Y-44150000D01*
X69900000Y-44050000D02*
X70205000Y-44050000D01*
X70205000Y-44050000D02*
X72050000Y-44050000D01*
X67600000Y-43400000D02*
X69250000Y-43400000D01*
X71424997Y-44874997D02*
X71425003Y-44874997D01*
X67700000Y-43450000D02*
X69200000Y-44950000D01*
X69250000Y-43400000D02*
X69900000Y-44050000D01*
X71425003Y-44874997D02*
X72150000Y-44150000D01*
X69200000Y-44950000D02*
X69509999Y-44950000D01*
X67600000Y-43450000D02*
X67700000Y-43450000D01*
X69509999Y-44950000D02*
X69560000Y-45000001D01*
%TO.N,GND*%
X76315003Y-44875003D02*
X76580000Y-45140000D01*
D23*
X71890001Y-50150000D02*
X71450000Y-50150000D01*
X73340000Y-41890000D02*
X73517299Y-41890000D01*
D22*
X75374997Y-44875003D02*
X75374997Y-45100000D01*
X77100000Y-45140000D02*
X77100000Y-44650000D01*
X77650000Y-45100000D02*
X78200000Y-44550000D01*
D23*
X69550000Y-48009999D02*
X69550000Y-48550000D01*
D22*
X76600000Y-48080000D02*
X77650000Y-48080000D01*
X75374997Y-45100000D02*
X75600000Y-45100000D01*
X76580000Y-45140000D02*
X77100000Y-45140000D01*
X77650000Y-48080000D02*
X78230000Y-48080000D01*
X75374997Y-45100000D02*
X75374997Y-45375002D01*
X76344998Y-45375002D02*
X76580000Y-45140000D01*
X78230000Y-48080000D02*
X78250000Y-48100000D01*
X75600000Y-45100000D02*
X75640000Y-45140000D01*
X75640000Y-45140000D02*
X76580000Y-45140000D01*
X77650000Y-45140000D02*
X77650000Y-45100000D01*
X75374997Y-44875003D02*
X76315003Y-44875003D01*
X75374997Y-45375002D02*
X76344998Y-45375002D01*
X76600000Y-48080000D02*
X76020000Y-48080000D01*
D23*
X69550000Y-48550000D02*
X69600000Y-48600000D01*
D22*
X76020000Y-48080000D02*
X76000000Y-48100000D01*
D23*
X71450000Y-50150000D02*
X71200000Y-49900000D01*
X73517299Y-41890000D02*
X73807299Y-41600000D01*
D22*
X77100000Y-45140000D02*
X77650000Y-45140000D01*
%TO.N,/PMID*%
X72649999Y-43219999D02*
X72449999Y-43219999D01*
X72150000Y-41855000D02*
X72205000Y-41800000D01*
X72649999Y-44150000D02*
X72649999Y-43219999D01*
X72150000Y-42920000D02*
X72150000Y-41855000D01*
X72449999Y-43219999D02*
X72150000Y-42920000D01*
%TO.N,/VSYS*%
X75374997Y-45875003D02*
X75374997Y-46100000D01*
X77650000Y-46100000D02*
X79550000Y-46100000D01*
X76355003Y-45875003D02*
X76580000Y-46100000D01*
X79550000Y-46100000D02*
X80750000Y-44900000D01*
X79750000Y-44900000D02*
X80750000Y-44900000D01*
X78625000Y-43775000D02*
X79750000Y-44900000D01*
X76580000Y-46100000D02*
X77650000Y-46100000D01*
X75374997Y-46375002D02*
X76304998Y-46375002D01*
X78625000Y-42600000D02*
X78625000Y-43775000D01*
X75374997Y-45875003D02*
X76355003Y-45875003D01*
X75374997Y-46100000D02*
X76580000Y-46100000D01*
X76304998Y-46375002D02*
X76580000Y-46100000D01*
X75374997Y-46100000D02*
X75374997Y-46375002D01*
D23*
%TO.N,/REGN*%
X77609999Y-49550000D02*
X78250000Y-49550000D01*
X73146063Y-42850000D02*
X72916831Y-42620768D01*
X73340000Y-42850000D02*
X73146063Y-42850000D01*
X73150000Y-43040000D02*
X73150000Y-44150000D01*
X73340000Y-42850000D02*
X73150000Y-43040000D01*
X78250000Y-49550000D02*
X78300000Y-49500000D01*
%TO.N,Net-(U1-BTST)*%
X73649999Y-43483003D02*
X73649999Y-44150000D01*
X73989000Y-42501000D02*
X73989000Y-43144002D01*
X74600000Y-41890000D02*
X73989000Y-42501000D01*
X73989000Y-43144002D02*
X73649999Y-43483003D01*
%TO.N,/BUTTON*%
X74649994Y-48100000D02*
X75250994Y-48701000D01*
X78849000Y-48701000D02*
X79650000Y-47900000D01*
X75250994Y-48701000D02*
X78849000Y-48701000D01*
X79650000Y-47900000D02*
X80750000Y-47900000D01*
D22*
%TO.N,/VBAT*%
X75374997Y-47375003D02*
X76344997Y-47375003D01*
D23*
X73649994Y-48100000D02*
X73649994Y-48949994D01*
D22*
X79380000Y-47120000D02*
X78950000Y-47120000D01*
D23*
X76580000Y-47100000D02*
X76600000Y-47120000D01*
D22*
X78950000Y-47120000D02*
X77650000Y-47120000D01*
X75374997Y-46875004D02*
X75374997Y-47100000D01*
X80100000Y-46400000D02*
X79380000Y-47120000D01*
X75374997Y-46875004D02*
X76355004Y-46875004D01*
X75394997Y-47120000D02*
X76600000Y-47120000D01*
X77650000Y-47120000D02*
X76600000Y-47120000D01*
D23*
X78900000Y-47070000D02*
X78950000Y-47120000D01*
X78900000Y-46750000D02*
X78900000Y-47070000D01*
D22*
X75374997Y-47100000D02*
X75374997Y-47375003D01*
X80750000Y-46400000D02*
X80100000Y-46400000D01*
X76355004Y-46875004D02*
X76600000Y-47120000D01*
D23*
X73649994Y-48949994D02*
X73650000Y-48950000D01*
D22*
X76344997Y-47375003D02*
X76600000Y-47120000D01*
X75374997Y-47100000D02*
X75394997Y-47120000D01*
D23*
%TO.N,/PSEL*%
X70758000Y-45374996D02*
X70112997Y-46019999D01*
X71424997Y-45374996D02*
X70758000Y-45374996D01*
X69560000Y-46019999D02*
X69560000Y-46980001D01*
X70112997Y-46019999D02*
X69560000Y-46019999D01*
X69560000Y-46980001D02*
X69550000Y-46990001D01*
%TO.N,/TS*%
X76200000Y-49550000D02*
X75800000Y-49150000D01*
X74149995Y-48600052D02*
X74251000Y-48701057D01*
X75800000Y-49150000D02*
X74251000Y-49150000D01*
X72909999Y-50150000D02*
X73840001Y-50150000D01*
X74251000Y-49739001D02*
X73840001Y-50150000D01*
X74251000Y-49150000D02*
X74251000Y-49739001D01*
X74251000Y-48701057D02*
X74251000Y-49150000D01*
X74149995Y-48100000D02*
X74149995Y-48600052D01*
X76590001Y-49550000D02*
X76200000Y-49550000D01*
%TO.N,/SDA*%
X70587691Y-47374997D02*
X70556238Y-47406450D01*
X71424997Y-47374997D02*
X70587691Y-47374997D01*
%TO.N,/INT_N*%
X68499661Y-48349604D02*
X69351057Y-49201000D01*
X68499661Y-47900000D02*
X68499661Y-48349604D01*
X70324000Y-49201000D02*
X71425000Y-48100000D01*
X67600000Y-47900000D02*
X68499661Y-47900000D01*
X71425000Y-48100000D02*
X72149994Y-48100000D01*
X69351057Y-49201000D02*
X70324000Y-49201000D01*
%TO.N,/SCL*%
X71424997Y-46874998D02*
X70834732Y-46874998D01*
X70834732Y-46874998D02*
X70465365Y-46505631D01*
D22*
%TO.N,/SW*%
X74310406Y-43460406D02*
X74600000Y-43170812D01*
X74150000Y-43620812D02*
X74310406Y-43460406D01*
X74150001Y-44150000D02*
X74400000Y-44150000D01*
X76225000Y-42850000D02*
X76475000Y-42600000D01*
X74400000Y-44150000D02*
X74650000Y-44150000D01*
X74400000Y-43550000D02*
X74310406Y-43460406D01*
X74600000Y-43170812D02*
X74600000Y-42850000D01*
X74600000Y-42850000D02*
X76225000Y-42850000D01*
X74150000Y-44149999D02*
X74150000Y-43620812D01*
X74600000Y-44100000D02*
X74650000Y-44150000D01*
X74150001Y-44150000D02*
X74150000Y-44149999D01*
X74600000Y-42850000D02*
X74600000Y-44100000D01*
X74400000Y-44150000D02*
X74400000Y-43550000D01*
D23*
%TO.N,/CE_N*%
X69077000Y-49602000D02*
X68875000Y-49400000D01*
X73149995Y-48600062D02*
X72600057Y-49150000D01*
X73149995Y-48100000D02*
X73149995Y-48600062D01*
X71050057Y-49150000D02*
X70598057Y-49602000D01*
X68875000Y-49400000D02*
X67600000Y-49400000D01*
X70598057Y-49602000D02*
X69077000Y-49602000D01*
X72600057Y-49150000D02*
X71050057Y-49150000D01*
%TO.N,/TS_BAT*%
X74880999Y-50171000D02*
X79979000Y-50171000D01*
X79979000Y-50171000D02*
X80750000Y-49400000D01*
X74859999Y-50150000D02*
X74880999Y-50171000D01*
%TD*%
%TA.AperFunction,Conductor*%
%TO.N,/SW*%
G36*
X77393039Y-41320185D02*
G01*
X77438794Y-41372989D01*
X77450000Y-41424500D01*
X77450000Y-43752342D01*
X77430315Y-43819381D01*
X77377511Y-43865136D01*
X77308353Y-43875080D01*
X77301809Y-43873959D01*
X77178845Y-43849500D01*
X77178842Y-43849500D01*
X77021158Y-43849500D01*
X77021155Y-43849500D01*
X76866510Y-43880261D01*
X76866498Y-43880264D01*
X76720827Y-43940602D01*
X76720820Y-43940606D01*
X76695446Y-43957561D01*
X76663206Y-43979102D01*
X76596532Y-43999980D01*
X76594317Y-44000000D01*
X75649999Y-44000000D01*
X75389765Y-44199003D01*
X75333016Y-44223104D01*
X75323782Y-44224503D01*
X75310928Y-44224503D01*
X75269838Y-44232675D01*
X75267012Y-44233104D01*
X75265177Y-44232854D01*
X75248437Y-44234503D01*
X74902126Y-44234503D01*
X74902119Y-44234504D01*
X74842512Y-44240911D01*
X74773419Y-44266682D01*
X74730086Y-44274500D01*
X74414498Y-44274500D01*
X74347459Y-44254815D01*
X74301704Y-44202011D01*
X74290498Y-44150500D01*
X74290498Y-43743100D01*
X74299141Y-43713665D01*
X74305664Y-43683676D01*
X74309420Y-43678657D01*
X74310183Y-43676061D01*
X74326815Y-43655421D01*
X74347504Y-43634732D01*
X74347509Y-43634728D01*
X74357714Y-43624522D01*
X74357716Y-43624522D01*
X74469520Y-43512718D01*
X74542860Y-43385689D01*
X74542861Y-43385688D01*
X74545180Y-43381670D01*
X74548577Y-43375787D01*
X74589501Y-43223059D01*
X74589501Y-43064945D01*
X74589501Y-43057350D01*
X74589500Y-43057332D01*
X74589500Y-42801097D01*
X74598144Y-42771656D01*
X74604668Y-42741670D01*
X74608422Y-42736654D01*
X74609185Y-42734058D01*
X74625819Y-42713416D01*
X74632416Y-42706819D01*
X74693739Y-42673334D01*
X74720097Y-42670500D01*
X74834682Y-42670500D01*
X74834690Y-42670500D01*
X74870993Y-42667643D01*
X74870995Y-42667642D01*
X74870997Y-42667642D01*
X74911975Y-42655736D01*
X75026395Y-42622494D01*
X75165687Y-42540117D01*
X75280117Y-42425687D01*
X75362494Y-42286395D01*
X75407643Y-42130993D01*
X75410500Y-42094690D01*
X75410500Y-41685310D01*
X75407643Y-41649007D01*
X75362494Y-41493605D01*
X75358953Y-41487618D01*
X75341773Y-41419896D01*
X75363933Y-41353634D01*
X75418399Y-41309871D01*
X75465687Y-41300500D01*
X77326000Y-41300500D01*
X77393039Y-41320185D01*
G37*
%TD.AperFunction*%
%TD*%
%TA.AperFunction,Conductor*%
%TO.N,/VBAT*%
G36*
X78353051Y-46868026D02*
G01*
X78411146Y-46906843D01*
X78439033Y-46970906D01*
X78440000Y-46986361D01*
X78440000Y-47175500D01*
X78420315Y-47242539D01*
X78367511Y-47288294D01*
X78316000Y-47299500D01*
X78171158Y-47299500D01*
X78111528Y-47311360D01*
X78105566Y-47312395D01*
X78101732Y-47312964D01*
X78065550Y-47316051D01*
X78038049Y-47322428D01*
X78033114Y-47323162D01*
X78014035Y-47320510D01*
X77980291Y-47319585D01*
X77951981Y-47311360D01*
X77920994Y-47302357D01*
X77920991Y-47302356D01*
X77884697Y-47299500D01*
X77884690Y-47299500D01*
X77415310Y-47299500D01*
X77415302Y-47299500D01*
X77379008Y-47302356D01*
X77379002Y-47302357D01*
X77223609Y-47347504D01*
X77223602Y-47347507D01*
X77188120Y-47368491D01*
X77120396Y-47385674D01*
X77061880Y-47368491D01*
X77026397Y-47347507D01*
X77026390Y-47347504D01*
X76870997Y-47302357D01*
X76870991Y-47302356D01*
X76834697Y-47299500D01*
X76834690Y-47299500D01*
X76365310Y-47299500D01*
X76365302Y-47299500D01*
X76329008Y-47302356D01*
X76329002Y-47302357D01*
X76269706Y-47319585D01*
X76257681Y-47320287D01*
X76249903Y-47323624D01*
X76224321Y-47322236D01*
X76214618Y-47322804D01*
X76210839Y-47322170D01*
X76184390Y-47316037D01*
X76177262Y-47314439D01*
X76176999Y-47314382D01*
X76116585Y-47305070D01*
X76110587Y-47305371D01*
X76098320Y-47303316D01*
X76097718Y-47303024D01*
X76094625Y-47302639D01*
X76078842Y-47299500D01*
X75921158Y-47299500D01*
X75921155Y-47299500D01*
X75766510Y-47330261D01*
X75766498Y-47330264D01*
X75620827Y-47390602D01*
X75620814Y-47390609D01*
X75489711Y-47478210D01*
X75489707Y-47478213D01*
X75462177Y-47505744D01*
X75400854Y-47539229D01*
X75331162Y-47534245D01*
X75275229Y-47492373D01*
X75250812Y-47426909D01*
X75250496Y-47418063D01*
X75250496Y-47149502D01*
X75270181Y-47082463D01*
X75322985Y-47036708D01*
X75374496Y-47025502D01*
X76369069Y-47025502D01*
X76453613Y-47008684D01*
X76494742Y-47000503D01*
X76613125Y-46951467D01*
X76613700Y-46951083D01*
X76688061Y-46901396D01*
X76704689Y-46896084D01*
X76718532Y-46886602D01*
X76750034Y-46881598D01*
X76753304Y-46880554D01*
X76755139Y-46880500D01*
X76814690Y-46880500D01*
X76850258Y-46877700D01*
X76853311Y-46877611D01*
X76867507Y-46881329D01*
X76906368Y-46887827D01*
X76919442Y-46893507D01*
X76919448Y-46893509D01*
X76919455Y-46893512D01*
X76977971Y-46910695D01*
X77101635Y-46930826D01*
X77101637Y-46930825D01*
X77101638Y-46930826D01*
X77155289Y-46925134D01*
X77244713Y-46915649D01*
X77312437Y-46898466D01*
X77338050Y-46887898D01*
X77395071Y-46878907D01*
X77415310Y-46880500D01*
X77415318Y-46880500D01*
X77884682Y-46880500D01*
X77884690Y-46880500D01*
X77920993Y-46877643D01*
X77920995Y-46877642D01*
X77925458Y-46877291D01*
X77962203Y-46881117D01*
X77962467Y-46879948D01*
X77969788Y-46881598D01*
X77979078Y-46883692D01*
X78000282Y-46887795D01*
X78009368Y-46889554D01*
X78012135Y-46889603D01*
X78153226Y-46892124D01*
X78222551Y-46883417D01*
X78222555Y-46883416D01*
X78283196Y-46866780D01*
X78353051Y-46868026D01*
G37*
%TD.AperFunction*%
%TD*%
%TA.AperFunction,Conductor*%
%TO.N,GND*%
G36*
X77236417Y-44375435D02*
G01*
X77380297Y-44375434D01*
X77383315Y-44375000D01*
X78253692Y-44375000D01*
X78320731Y-44394685D01*
X78341373Y-44411319D01*
X78413681Y-44483627D01*
X78447166Y-44544950D01*
X78450000Y-44571308D01*
X78450000Y-45108331D01*
X78430315Y-45175370D01*
X78377511Y-45221125D01*
X78334848Y-45232015D01*
X78189851Y-45242388D01*
X78055040Y-45292670D01*
X78017899Y-45312951D01*
X77949625Y-45327802D01*
X77923887Y-45323197D01*
X77920998Y-45322358D01*
X77920991Y-45322356D01*
X77884697Y-45319500D01*
X77884690Y-45319500D01*
X77415310Y-45319500D01*
X77415302Y-45319500D01*
X77379008Y-45322356D01*
X77379002Y-45322357D01*
X77317486Y-45340230D01*
X77262968Y-45343543D01*
X77138361Y-45323259D01*
X77138357Y-45323258D01*
X76995287Y-45338435D01*
X76995268Y-45338438D01*
X76980494Y-45342187D01*
X76935034Y-45345088D01*
X76925056Y-45343874D01*
X76850993Y-45322357D01*
X76814690Y-45319500D01*
X76724608Y-45319500D01*
X76717149Y-45318593D01*
X76691681Y-45307626D01*
X76668771Y-45300899D01*
X76668500Y-45301408D01*
X76666058Y-45300102D01*
X76665078Y-45299815D01*
X76663266Y-45298629D01*
X76663130Y-45298538D01*
X76663129Y-45298537D01*
X76663127Y-45298536D01*
X76544747Y-45249502D01*
X76544741Y-45249500D01*
X76419074Y-45224503D01*
X76419072Y-45224503D01*
X75439066Y-45224503D01*
X75310928Y-45224503D01*
X75272626Y-45232121D01*
X75248437Y-45234503D01*
X75116741Y-45234503D01*
X75049702Y-45214818D01*
X75003947Y-45162014D01*
X74994003Y-45092856D01*
X75023028Y-45029300D01*
X75042425Y-45011240D01*
X75147546Y-44932547D01*
X75233796Y-44817332D01*
X75235194Y-44813581D01*
X75237595Y-44810374D01*
X75238046Y-44809549D01*
X75238164Y-44809613D01*
X75242689Y-44803568D01*
X75246025Y-44791512D01*
X75263228Y-44776126D01*
X75277060Y-44757647D01*
X75290035Y-44752152D01*
X75298105Y-44744936D01*
X75324223Y-44737675D01*
X75331810Y-44734463D01*
X75341667Y-44732887D01*
X75342880Y-44732878D01*
X75345706Y-44732449D01*
X75368441Y-44728465D01*
X75369309Y-44728292D01*
X75375837Y-44726994D01*
X75390725Y-44724960D01*
X75399491Y-44724300D01*
X75399491Y-44724299D01*
X75399504Y-44724299D01*
X75408738Y-44722900D01*
X75530617Y-44688382D01*
X75587366Y-44664281D01*
X75696832Y-44600550D01*
X75787782Y-44531000D01*
X75852993Y-44505913D01*
X75863106Y-44505500D01*
X76594235Y-44505500D01*
X76594317Y-44505500D01*
X76598881Y-44505479D01*
X76601096Y-44505459D01*
X76605562Y-44505399D01*
X76681399Y-44493108D01*
X76747584Y-44482383D01*
X76747585Y-44482382D01*
X76747589Y-44482382D01*
X76814263Y-44461504D01*
X76944041Y-44399414D01*
X76949300Y-44395899D01*
X77015976Y-44375020D01*
X77018194Y-44375000D01*
X77233654Y-44375000D01*
X77236417Y-44375435D01*
G37*
%TD.AperFunction*%
%TD*%
%TA.AperFunction,Conductor*%
%TO.N,GND*%
G36*
X71395631Y-41320185D02*
G01*
X71441386Y-41372989D01*
X71451330Y-41442147D01*
X71447668Y-41459095D01*
X71427357Y-41529002D01*
X71427356Y-41529008D01*
X71424500Y-41565302D01*
X71424500Y-42034697D01*
X71427356Y-42070991D01*
X71427357Y-42070997D01*
X71472504Y-42226390D01*
X71472504Y-42226392D01*
X71482232Y-42242840D01*
X71486582Y-42258742D01*
X71494477Y-42271027D01*
X71499500Y-42305962D01*
X71499500Y-42321037D01*
X71482232Y-42384157D01*
X71417507Y-42493602D01*
X71417504Y-42493609D01*
X71372357Y-42649002D01*
X71372356Y-42649008D01*
X71369500Y-42685302D01*
X71369500Y-43101000D01*
X71366949Y-43109685D01*
X71368238Y-43118647D01*
X71357259Y-43142687D01*
X71349815Y-43168039D01*
X71342974Y-43173966D01*
X71339213Y-43182203D01*
X71316978Y-43196492D01*
X71297011Y-43213794D01*
X71286496Y-43216081D01*
X71280435Y-43219977D01*
X71245500Y-43225000D01*
X71039681Y-43225000D01*
X71020113Y-43223446D01*
X70908195Y-43205560D01*
X70898032Y-43205212D01*
X70847225Y-43203475D01*
X70847223Y-43203475D01*
X70847220Y-43203475D01*
X70847211Y-43203475D01*
X70722446Y-43214743D01*
X70722439Y-43214744D01*
X70614920Y-43254860D01*
X70587636Y-43265041D01*
X70587634Y-43265041D01*
X70587634Y-43265042D01*
X70585023Y-43266468D01*
X70584045Y-43266680D01*
X70583607Y-43266881D01*
X70583563Y-43266785D01*
X70516751Y-43281324D01*
X70490997Y-43276716D01*
X70475996Y-43272358D01*
X70475997Y-43272358D01*
X70475993Y-43272357D01*
X70475989Y-43272356D01*
X70475986Y-43272356D01*
X70439697Y-43269500D01*
X70439690Y-43269500D01*
X70090808Y-43269500D01*
X70023769Y-43249815D01*
X70003127Y-43233181D01*
X69816819Y-43046873D01*
X69783334Y-42985550D01*
X69780500Y-42959192D01*
X69780500Y-42724010D01*
X69780500Y-42724000D01*
X69768947Y-42616544D01*
X69757741Y-42565033D01*
X69757437Y-42564119D01*
X69723614Y-42462498D01*
X69719682Y-42456379D01*
X69700000Y-42389343D01*
X69700000Y-41424500D01*
X69719685Y-41357461D01*
X69772489Y-41311706D01*
X69824000Y-41300500D01*
X71328592Y-41300500D01*
X71395631Y-41320185D01*
G37*
%TD.AperFunction*%
%TD*%
%TA.AperFunction,Conductor*%
%TO.N,/VSYS*%
G36*
X78366996Y-45741318D02*
G01*
X78422931Y-45783189D01*
X78447349Y-45848653D01*
X78447659Y-45858716D01*
X78446024Y-46025515D01*
X78425683Y-46092359D01*
X78394206Y-46124092D01*
X78394417Y-46124349D01*
X78391913Y-46126403D01*
X78390927Y-46127398D01*
X78389713Y-46128209D01*
X78389705Y-46128215D01*
X78278213Y-46239707D01*
X78278210Y-46239711D01*
X78213169Y-46337052D01*
X78159557Y-46381857D01*
X78090232Y-46390564D01*
X78075472Y-46387237D01*
X77920997Y-46342357D01*
X77920991Y-46342356D01*
X77884697Y-46339500D01*
X77884690Y-46339500D01*
X77415310Y-46339500D01*
X77415302Y-46339500D01*
X77379008Y-46342356D01*
X77379002Y-46342357D01*
X77223609Y-46387504D01*
X77223602Y-46387507D01*
X77188120Y-46408491D01*
X77120396Y-46425674D01*
X77061880Y-46408491D01*
X77026397Y-46387507D01*
X77026390Y-46387504D01*
X76870997Y-46342357D01*
X76870991Y-46342356D01*
X76834697Y-46339500D01*
X76834690Y-46339500D01*
X76762049Y-46339500D01*
X76728826Y-46329744D01*
X76695235Y-46319960D01*
X76695015Y-46319816D01*
X76695010Y-46319815D01*
X76695005Y-46319810D01*
X76693159Y-46318603D01*
X76663131Y-46298539D01*
X76544748Y-46249503D01*
X76538539Y-46248268D01*
X76538533Y-46248266D01*
X76528248Y-46246221D01*
X76525255Y-46245625D01*
X76463344Y-46213242D01*
X76428768Y-46152528D01*
X76432506Y-46082758D01*
X76473371Y-46026085D01*
X76525253Y-46002391D01*
X76529444Y-46001556D01*
X76534742Y-46000503D01*
X76653125Y-45951467D01*
X76661756Y-45945699D01*
X76668195Y-45941398D01*
X76669160Y-45941095D01*
X76669821Y-45940330D01*
X76702430Y-45930678D01*
X76734872Y-45920520D01*
X76736809Y-45920502D01*
X76736818Y-45920500D01*
X76736826Y-45920502D01*
X76737086Y-45920500D01*
X76814682Y-45920500D01*
X76814690Y-45920500D01*
X76850993Y-45917643D01*
X76850995Y-45917642D01*
X76850997Y-45917642D01*
X76891975Y-45905736D01*
X77006395Y-45872494D01*
X77051879Y-45845594D01*
X77119602Y-45828411D01*
X77178120Y-45845594D01*
X77223605Y-45872494D01*
X77264587Y-45884400D01*
X77379002Y-45917642D01*
X77379005Y-45917642D01*
X77379007Y-45917643D01*
X77415310Y-45920500D01*
X77415318Y-45920500D01*
X77884682Y-45920500D01*
X77884690Y-45920500D01*
X77920993Y-45917643D01*
X77920995Y-45917642D01*
X77920997Y-45917642D01*
X77961975Y-45905736D01*
X78076395Y-45872494D01*
X78215687Y-45790117D01*
X78235984Y-45769819D01*
X78297305Y-45736335D01*
X78366996Y-45741318D01*
G37*
%TD.AperFunction*%
%TD*%
%TA.AperFunction,Conductor*%
%TO.N,VBUS*%
G36*
X69218039Y-42619685D02*
G01*
X69263794Y-42672489D01*
X69275000Y-42724000D01*
X69275000Y-43574999D01*
X69275000Y-43575000D01*
X69424433Y-43574758D01*
X69491502Y-43594334D01*
X69522610Y-43622758D01*
X69524881Y-43625686D01*
X69639307Y-43740112D01*
X69639311Y-43740115D01*
X69639313Y-43740117D01*
X69778605Y-43822494D01*
X69816374Y-43833467D01*
X69934002Y-43867642D01*
X69934005Y-43867642D01*
X69934007Y-43867643D01*
X69970310Y-43870500D01*
X69970318Y-43870500D01*
X70439682Y-43870500D01*
X70439690Y-43870500D01*
X70475993Y-43867643D01*
X70475995Y-43867642D01*
X70475997Y-43867642D01*
X70546925Y-43847035D01*
X70631395Y-43822494D01*
X70770687Y-43740117D01*
X70770692Y-43740111D01*
X70776853Y-43735334D01*
X70778131Y-43736982D01*
X70829948Y-43708680D01*
X70890917Y-43710765D01*
X70949007Y-43727643D01*
X70985310Y-43730500D01*
X70985318Y-43730500D01*
X71394682Y-43730500D01*
X71394690Y-43730500D01*
X71430993Y-43727643D01*
X71430995Y-43727642D01*
X71430997Y-43727642D01*
X71496263Y-43708680D01*
X71586395Y-43682494D01*
X71606879Y-43670379D01*
X71674601Y-43653196D01*
X71709944Y-43659721D01*
X71722081Y-43663850D01*
X71753605Y-43682494D01*
X71909007Y-43727643D01*
X71909725Y-43727699D01*
X71915443Y-43729645D01*
X71941806Y-43748211D01*
X71968980Y-43765565D01*
X71970193Y-43768203D01*
X71972568Y-43769875D01*
X71984708Y-43799746D01*
X71998186Y-43829038D01*
X71998530Y-43833757D01*
X71998874Y-43834603D01*
X71998671Y-43835686D01*
X71999499Y-43847035D01*
X71999499Y-44173559D01*
X71979814Y-44240598D01*
X71927010Y-44286353D01*
X71918832Y-44289741D01*
X71807668Y-44331202D01*
X71807661Y-44331206D01*
X71692452Y-44417452D01*
X71692449Y-44417455D01*
X71606203Y-44532664D01*
X71606200Y-44532669D01*
X71561010Y-44653830D01*
X71519138Y-44709763D01*
X71453674Y-44734180D01*
X71444828Y-44734496D01*
X70952125Y-44734496D01*
X70952119Y-44734497D01*
X70892512Y-44740904D01*
X70823414Y-44766677D01*
X70780081Y-44774495D01*
X70678943Y-44774495D01*
X70571587Y-44803261D01*
X70526210Y-44815420D01*
X70526209Y-44815421D01*
X70476096Y-44844355D01*
X70476095Y-44844356D01*
X70432689Y-44869416D01*
X70389285Y-44894475D01*
X70389282Y-44894477D01*
X70220079Y-45063681D01*
X70158756Y-45097166D01*
X70132398Y-45100000D01*
X68993345Y-45100000D01*
X68984188Y-45097311D01*
X68974731Y-45098595D01*
X68951205Y-45087626D01*
X68926306Y-45080315D01*
X68918370Y-45072317D01*
X68911406Y-45069070D01*
X68888504Y-45042215D01*
X68784659Y-44877793D01*
X68765945Y-44813117D01*
X68765882Y-44813123D01*
X68765857Y-44812814D01*
X68765500Y-44811578D01*
X68765500Y-44808267D01*
X68736802Y-44627081D01*
X68736802Y-44627078D01*
X68680111Y-44452603D01*
X68596825Y-44289145D01*
X68561554Y-44240598D01*
X68488999Y-44140734D01*
X68488995Y-44140729D01*
X68359270Y-44011004D01*
X68359265Y-44011000D01*
X68210856Y-43903175D01*
X68168204Y-43881442D01*
X68117408Y-43833467D01*
X68100500Y-43770958D01*
X68100500Y-42724000D01*
X68120185Y-42656961D01*
X68172989Y-42611206D01*
X68224500Y-42600000D01*
X69151000Y-42600000D01*
X69218039Y-42619685D01*
G37*
%TD.AperFunction*%
%TD*%
%TA.AperFunction,Conductor*%
%TO.N,GND*%
G36*
X77394236Y-44708527D02*
G01*
X77204236Y-44990000D01*
X77204236Y-45290000D01*
X76850559Y-44816671D01*
X77099000Y-44650000D01*
X77394236Y-44708527D01*
G37*
%TD.AperFunction*%
%TD*%
%TA.AperFunction,Conductor*%
%TO.N,GND*%
G36*
X78200707Y-44549293D02*
G01*
X78366671Y-44799441D01*
X77885878Y-45076254D01*
X77673746Y-44864122D01*
X77950559Y-44383329D01*
X78200707Y-44549293D01*
G37*
%TD.AperFunction*%
%TD*%
%TA.AperFunction,Conductor*%
%TO.N,GND*%
G36*
X69650852Y-48013426D02*
G01*
X69653163Y-48016713D01*
X69845158Y-48424238D01*
X69845584Y-48433182D01*
X69841101Y-48438934D01*
X69604057Y-48598272D01*
X69595279Y-48600043D01*
X69595210Y-48600030D01*
X69348157Y-48550049D01*
X69318006Y-48543949D01*
X69310578Y-48538950D01*
X69308859Y-48530162D01*
X69309030Y-48529434D01*
X69447656Y-48018634D01*
X69453131Y-48011548D01*
X69458948Y-48009999D01*
X69642579Y-48009999D01*
X69650852Y-48013426D01*
G37*
%TD.AperFunction*%
%TD*%
%TA.AperFunction,Conductor*%
%TO.N,GND*%
G36*
X78188581Y-47809952D02*
G01*
X78193789Y-47817237D01*
X78193859Y-47817560D01*
X78250530Y-48097680D01*
X78250530Y-48102320D01*
X78194031Y-48381587D01*
X78189031Y-48389016D01*
X78180243Y-48390735D01*
X78179134Y-48390453D01*
X77664035Y-48232535D01*
X77657129Y-48226834D01*
X77655764Y-48221349D01*
X77655764Y-47939297D01*
X77659191Y-47931024D01*
X77664819Y-47927900D01*
X78179750Y-47808482D01*
X78188581Y-47809952D01*
G37*
%TD.AperFunction*%
%TD*%
%TA.AperFunction,Conductor*%
%TO.N,GND*%
G36*
X76070191Y-47808469D02*
G01*
X76585180Y-47927899D01*
X76592464Y-47933107D01*
X76594236Y-47939297D01*
X76594236Y-48221349D01*
X76590809Y-48229622D01*
X76585965Y-48232535D01*
X76070865Y-48390453D01*
X76061951Y-48389602D01*
X76056250Y-48382696D01*
X76055968Y-48381587D01*
X75999469Y-48102320D01*
X75999469Y-48097680D01*
X76056140Y-47817558D01*
X76061140Y-47810131D01*
X76069928Y-47808412D01*
X76070191Y-47808469D01*
G37*
%TD.AperFunction*%
%TD*%
%TA.AperFunction,Conductor*%
%TO.N,GND*%
G36*
X71456092Y-49742060D02*
G01*
X71688289Y-50046859D01*
X71690682Y-50053948D01*
X71690682Y-50237052D01*
X71687255Y-50245325D01*
X71678982Y-50248752D01*
X71677800Y-50248692D01*
X71154235Y-50195531D01*
X71146350Y-50191286D01*
X71143777Y-50182709D01*
X71143932Y-50181656D01*
X71198063Y-49904788D01*
X71203013Y-49897329D01*
X71440303Y-49739409D01*
X71449089Y-49737679D01*
X71456092Y-49742060D01*
G37*
%TD.AperFunction*%
%TD*%
%TA.AperFunction,Conductor*%
%TO.N,GND*%
G36*
X73567601Y-41439823D02*
G01*
X73567984Y-41440068D01*
X73804234Y-41597295D01*
X73809223Y-41604731D01*
X73809235Y-41604790D01*
X73863551Y-41882603D01*
X73861775Y-41891380D01*
X73854313Y-41896331D01*
X73854164Y-41896359D01*
X73353796Y-41987487D01*
X73345043Y-41985598D01*
X73340189Y-41978072D01*
X73340000Y-41975976D01*
X73340000Y-41793291D01*
X73341715Y-41787192D01*
X73453164Y-41604731D01*
X73551518Y-41443707D01*
X73558754Y-41438435D01*
X73567601Y-41439823D01*
G37*
%TD.AperFunction*%
%TD*%
%TA.AperFunction,Conductor*%
%TO.N,/REGN*%
G36*
X78138913Y-49258866D02*
G01*
X78298272Y-49495942D01*
X78300043Y-49504720D01*
X78300030Y-49504789D01*
X78243945Y-49782016D01*
X78238945Y-49789445D01*
X78230157Y-49791164D01*
X78229435Y-49790994D01*
X77714422Y-49652331D01*
X77707324Y-49646871D01*
X77705764Y-49641033D01*
X77705764Y-49457452D01*
X77709191Y-49449179D01*
X77712515Y-49446850D01*
X78124258Y-49254789D01*
X78133203Y-49254398D01*
X78138913Y-49258866D01*
G37*
%TD.AperFunction*%
%TD*%
%TA.AperFunction,Conductor*%
%TO.N,/REGN*%
G36*
X73172188Y-42464213D02*
G01*
X73172538Y-42464771D01*
X73338390Y-42747257D01*
X73340000Y-42753181D01*
X73340000Y-42937419D01*
X73336573Y-42945692D01*
X73328300Y-42949119D01*
X73327452Y-42949088D01*
X72871472Y-42915960D01*
X72863469Y-42911943D01*
X72860651Y-42903443D01*
X72860837Y-42902046D01*
X72914894Y-42625556D01*
X72919844Y-42618097D01*
X73155967Y-42460954D01*
X73164752Y-42459224D01*
X73172188Y-42464213D01*
G37*
%TD.AperFunction*%
%TD*%
%TA.AperFunction,Conductor*%
%TO.N,/VBAT*%
G36*
X73750064Y-48359191D02*
G01*
X73752790Y-48363476D01*
X73808794Y-48517930D01*
X73809495Y-48521918D01*
X73809495Y-48544748D01*
X73821128Y-48603232D01*
X73851138Y-48648144D01*
X73852711Y-48651616D01*
X73869973Y-48716041D01*
X73869977Y-48716050D01*
X73870030Y-48716139D01*
X73898097Y-48764753D01*
X73898963Y-48766615D01*
X73939607Y-48878709D01*
X73939206Y-48887655D01*
X73932596Y-48893696D01*
X73930928Y-48894165D01*
X73652320Y-48950530D01*
X73647680Y-48950530D01*
X73369070Y-48894165D01*
X73361641Y-48889165D01*
X73359922Y-48880377D01*
X73360388Y-48878718D01*
X73401041Y-48766591D01*
X73401898Y-48764753D01*
X73430017Y-48716050D01*
X73447284Y-48651603D01*
X73448851Y-48648144D01*
X73478862Y-48603232D01*
X73490495Y-48544749D01*
X73490495Y-48521923D01*
X73491196Y-48517935D01*
X73547198Y-48363476D01*
X73553239Y-48356866D01*
X73558197Y-48355764D01*
X73741791Y-48355764D01*
X73750064Y-48359191D01*
G37*
%TD.AperFunction*%
%TD*%
%TA.AperFunction,Conductor*%
%TO.N,/VBAT*%
G36*
X78905817Y-46753658D02*
G01*
X79137778Y-46908867D01*
X79142749Y-46916316D01*
X79140996Y-46925097D01*
X79139667Y-46926740D01*
X79020776Y-47049220D01*
X79020654Y-47049344D01*
X78888340Y-47181658D01*
X78880067Y-47185085D01*
X78871794Y-47181658D01*
X78871095Y-47180893D01*
X78658871Y-46926630D01*
X78656201Y-46918084D01*
X78660357Y-46910152D01*
X78661304Y-46909440D01*
X78892781Y-46753674D01*
X78901556Y-46751899D01*
X78905817Y-46753658D01*
G37*
%TD.AperFunction*%
%TD*%
%TA.AperFunction,Conductor*%
%TO.N,/SDA*%
G36*
X70627068Y-47115952D02*
G01*
X70676476Y-47130965D01*
X70678917Y-47132026D01*
X70690320Y-47138609D01*
X70718740Y-47155018D01*
X70718744Y-47155020D01*
X70779017Y-47171169D01*
X70795167Y-47175497D01*
X70795168Y-47175498D01*
X70795170Y-47175498D01*
X70821289Y-47175498D01*
X70824690Y-47176002D01*
X71142177Y-47272475D01*
X71149095Y-47278160D01*
X71150474Y-47283670D01*
X71150474Y-47467243D01*
X71147047Y-47475516D01*
X71143333Y-47478018D01*
X70731795Y-47652131D01*
X70722840Y-47652199D01*
X70717526Y-47647883D01*
X70557965Y-47410507D01*
X70556194Y-47401729D01*
X70556207Y-47401660D01*
X70612212Y-47124830D01*
X70617212Y-47117402D01*
X70626000Y-47115683D01*
X70627068Y-47115952D01*
G37*
%TD.AperFunction*%
%TD*%
%TA.AperFunction,Conductor*%
%TO.N,/SCL*%
G36*
X70719440Y-46349929D02*
G01*
X70720409Y-46351698D01*
X70786943Y-46502959D01*
X70798506Y-46529245D01*
X70799496Y-46533956D01*
X70799496Y-46534744D01*
X70811129Y-46593228D01*
X70855980Y-46660352D01*
X70856962Y-46662141D01*
X70905614Y-46772747D01*
X70906604Y-46777458D01*
X70906604Y-46958500D01*
X70903177Y-46966773D01*
X70894904Y-46970200D01*
X70891035Y-46969542D01*
X70416395Y-46803216D01*
X70409720Y-46797246D01*
X70408781Y-46789929D01*
X70434115Y-46660352D01*
X70463428Y-46510419D01*
X70468378Y-46502960D01*
X70703219Y-46346670D01*
X70712004Y-46344940D01*
X70719440Y-46349929D01*
G37*
%TD.AperFunction*%
%TD*%
M02*
